<svg id="Layer_1" data-name="Layer 1" xmlns="http://www.w3.org/2000/svg" xmlns:xlink="http://www.w3.org/1999/xlink" viewBox="0 0 1128.03 727.39"><defs><style>.cls-1{fill:none;}.cls-2{clip-path:url(#clip-path);}.cls-3{fill:#e6e6e6;}.cls-4{fill:#ff6584;}.cls-5{fill:#3f3d56;}.cls-6{fill:#4965c8;}.cls-7{fill:#fff;}</style><clipPath id="clip-path" transform="translate(-4.89 -18.72)"><rect class="cls-1" x="736.21" y="397.42" width="397.54" height="346.17"/></clipPath></defs><g class="cls-2"><path class="cls-3" d="M1132.92,741.82l-284.59,4.29-113-20H911.72Z" transform="translate(-4.89 -18.72)"/><path class="cls-4" d="M1063.08,491a45.54,45.54,0,1,0-45.52-45.54A45.54,45.54,0,0,0,1063.08,491Z" transform="translate(-4.89 -18.72)"/><path class="cls-5" d="M815.9,728.47s.67-14,14.32-12.34Z" transform="translate(-4.89 -18.72)"/><path class="cls-6" d="M812.05,715.18a6.83,6.83,0,1,0-6.84-6.83A6.83,6.83,0,0,0,812.05,715.18Z" transform="translate(-4.89 -18.72)"/><path class="cls-5" d="M812.86,719.86h-1.92v13.5h1.92Z" transform="translate(-4.89 -18.72)"/><path class="cls-5" d="M1040.9,730.85s.67-14,14.32-12.33Z" transform="translate(-4.89 -18.72)"/><path class="cls-6" d="M1037,717.57a6.84,6.84,0,1,0-6.83-6.84A6.83,6.83,0,0,0,1037,717.57Z" transform="translate(-4.89 -18.72)"/><path class="cls-5" d="M1037.86,722.24h-1.93v13.51h1.93Z" transform="translate(-4.89 -18.72)"/><path class="cls-5" d="M1073.79,733.23s.67-14,14.32-12.33Z" transform="translate(-4.89 -18.72)"/><path class="cls-6" d="M1069.93,720a6.84,6.84,0,1,0-6.83-6.83A6.83,6.83,0,0,0,1069.93,720Z" transform="translate(-4.89 -18.72)"/><path class="cls-5" d="M1070.75,724.63h-1.93v13.5h1.93Z" transform="translate(-4.89 -18.72)"/><path class="cls-5" d="M869.77,721.79s.67-14,14.32-12.33Z" transform="translate(-4.89 -18.72)"/><path class="cls-6" d="M865.91,708.51a6.84,6.84,0,1,0-6.83-6.84A6.83,6.83,0,0,0,865.91,708.51Z" transform="translate(-4.89 -18.72)"/><path class="cls-5" d="M866.73,713.18H864.8v13.51h1.93Z" transform="translate(-4.89 -18.72)"/><path class="cls-5" d="M768.24,724.17s.66-13.95,14.31-12.33Z" transform="translate(-4.89 -18.72)"/><path class="cls-6" d="M764.38,710.89a6.84,6.84,0,1,0-6.83-6.83A6.83,6.83,0,0,0,764.38,710.89Z" transform="translate(-4.89 -18.72)"/><path class="cls-5" d="M765.2,715.57h-1.93v13.5h1.93Z" transform="translate(-4.89 -18.72)"/><path class="cls-5" d="M933.42,699.92A74.46,74.46,0,1,0,859,625.46,74.45,74.45,0,0,0,933.42,699.92Z" transform="translate(-4.89 -18.72)"/><path class="cls-7" d="M886.56,631.44a19.72,19.72,0,0,1,30.24,0,21.9,21.9,0,1,0-30.24,0Z" transform="translate(-4.89 -18.72)"/><path class="cls-7" d="M945.67,631.44a19.72,19.72,0,0,1,30.24,0,21.9,21.9,0,1,0-30.24,0Z" transform="translate(-4.89 -18.72)"/><path class="cls-5" d="M894.21,615.68a7.54,7.54,0,1,0-7.53-7.54A7.53,7.53,0,0,0,894.21,615.68Z" transform="translate(-4.89 -18.72)"/><path class="cls-5" d="M953.32,615.68a7.54,7.54,0,1,0-7.53-7.54A7.53,7.53,0,0,0,953.32,615.68Z" transform="translate(-4.89 -18.72)"/><path class="cls-4" d="M879.78,652.84a8.76,8.76,0,1,0-8.75-8.76A8.76,8.76,0,0,0,879.78,652.84Z" transform="translate(-4.89 -18.72)"/><path class="cls-4" d="M980.49,652.84a8.76,8.76,0,1,0-8.75-8.76A8.76,8.76,0,0,0,980.49,652.84Z" transform="translate(-4.89 -18.72)"/><path class="cls-4" d="M930.14,626.56,923.57,655l10.95-10.95Z" transform="translate(-4.89 -18.72)"/><path class="cls-5" d="M963.89,736.06l-7.46-6.26.17,6.26h-2.31l-.19-6.62L944,736.06h-4.22L954,726.71l-.55-19.61-.41-14.81,2.31-.07.41,14.88.55,19.6,11.15,9.36Z" transform="translate(-4.89 -18.72)"/><path class="cls-5" d="M928.86,736.06l-7.46-6.26.17,6.26h-2.31l-.18-6.62L909,736.06h-4.22L919,726.71l-.55-19.61L918,692.29l2.32-.07.42,14.88.54,19.6,11.15,9.36Z" transform="translate(-4.89 -18.72)"/><path class="cls-5" d="M934.52,545.53c-2,0-3.85,1.59-5,4-1.06-3.67-3.29-6.22-5.9-6.22a4.34,4.34,0,0,0-.52.09c-1-3.91-3.33-6.66-6-6.66-3.62,0-6.56,4.91-6.56,11s2.94,10.95,6.56,10.95a3.09,3.09,0,0,0,.53-.09c1,3.92,3.33,6.66,6,6.66,2,0,3.85-1.59,5-4,1.06,3.66,3.29,6.21,5.9,6.21,3.63,0,6.57-4.9,6.57-10.95S938.15,545.53,934.52,545.53Z" transform="translate(-4.89 -18.72)"/><path class="cls-6" d="M863.55,653.68a21.91,21.91,0,0,1-21.89-21.9V620.83a21.9,21.9,0,0,1,21.89-21.9Z" transform="translate(-4.89 -18.72)"/><path class="cls-6" d="M1003.29,598.93a21.88,21.88,0,0,1,21.89,21.9v10.95a21.9,21.9,0,0,1-21.89,21.9Z" transform="translate(-4.89 -18.72)"/><path class="cls-6" d="M1014.76,622.55h-3.47a79.9,79.9,0,1,0-159.79,0H848a83.37,83.37,0,1,1,166.73,0Z" transform="translate(-4.89 -18.72)"/><path class="cls-6" d="M812.19,555.59h0l-1.63-.68L803.67,552l-2.46-1-.19.48-3.32,8.37,9.33,4,.05,0-.63,1.48a2.89,2.89,0,0,0-.22.43,2.06,2.06,0,0,0,1.18,2.53c.79.31,1.78-.34,2.22-1.45a2.33,2.33,0,0,0-.76-2.83h0l-1.64-.68-5.58-2.17,3.19-8.06-.47-.19-3.19,8.06-.69-.27,3.2-8.09.08,0,6.57,2.78,0,0-.63,1.49a2.1,2.1,0,0,0-.22.42,2.05,2.05,0,0,0,1.18,2.53c.78.31,1.78-.33,2.22-1.45A2.33,2.33,0,0,0,812.19,555.59Z" transform="translate(-4.89 -18.72)"/><path class="cls-6" d="M844.49,576.14c-3.39-1.93-2.71-6.19-2.71-6.19-.09-2.76-2.37-2.37-2.37-2.37l-.83.19a2.62,2.62,0,0,0-1.23-.23l-1.27.22a3,3,0,0,1,2.64,3.08l.4,2.81-7.53-3,.87-2a4.68,4.68,0,0,0,.3-.59,2.86,2.86,0,0,0-1.64-3.52c-1.09-.43-2.47.47-3.08,2s0,3.46,1.05,3.92h0l2.26.94,0-.05Zm-3.83-4.94.24,2.69a6.25,6.25,0,0,1-1.13-4.12,2.69,2.69,0,0,0-.5-1.45,3.08,3.08,0,0,1,1.39,2.88Z" transform="translate(-4.89 -18.72)"/><path class="cls-6" d="M769.32,540.53h0l-2.26-.95-9.47-3.68,2.39-2.13a3,3,0,0,1,1.92-1.17,3.05,3.05,0,0,1,2.2.49l-.74-1.1s-1.39-1.85-3.35.11c0,0-2.41,3.56-6.21,2.65l13,5.49.07.06-.87,2.06a4.25,4.25,0,0,0-.31.6,2.86,2.86,0,0,0,1.64,3.51c1.09.43,2.47-.47,3.08-2S770.39,541,769.32,540.53Z" transform="translate(-4.89 -18.72)"/><path class="cls-6" d="M821.69,524.26l-.87,2.06a4.25,4.25,0,0,0-.31.6,2.86,2.86,0,0,0,1.64,3.51c1.09.43,2.47-.47,3.09-2s0-3.46-1.06-3.93h0l-2.27-1-7.75-3,4.43-11.19-.66-.26-4.43,11.19-1-.37L817,508.66l.11,0,9.12,3.86.07.06-.88,2.06a3.36,3.36,0,0,0-.3.6,2.86,2.86,0,0,0,1.63,3.51c1.1.43,2.48-.47,3.09-2s0-3.46-1.05-3.93h0l-2.27-.95L817.26,508h0l-.3-.13-3.43-1.45-4.87,12.29,13,5.49Z" transform="translate(-4.89 -18.72)"/><path class="cls-6" d="M784.83,476.46h0l-3.91-1.62-16.3-6.34,4.11-3.66a5.21,5.21,0,0,1,7.11-1.17l-1.28-1.9s-2.4-3.18-5.76.19c0,0-4.16,6.13-10.69,4.57L780.43,476l.11.11-1.5,3.54a5.85,5.85,0,0,0-.52,1c-1.06,2.66.93,5.3,2.81,6.05s4.26-.81,5.31-3.47S786.67,477.26,784.83,476.46Z" transform="translate(-4.89 -18.72)"/><path class="cls-6" d="M797.65,526.35c-8.1-4.63-6.48-14.79-6.48-14.79-.2-6.6-5.65-5.67-5.65-5.67l-2,.45a6,6,0,0,0-2.95-.54l-3,.5c6.88,1.62,6.31,7.37,6.31,7.37l1,6.73-18-7.27,2.07-4.88a9.06,9.06,0,0,0,.73-1.42c1.46-3.69-1.3-7.37-3.92-8.4s-5.91,1.12-7.37,4.81,0,8.28,2.51,9.4h0l5.42,2.26,0-.13Zm-9.15-11.82.58,6.46a14.78,14.78,0,0,1-2.7-9.88,6.24,6.24,0,0,0-1.21-3.45,7.3,7.3,0,0,1,3.33,6.87Z" transform="translate(-4.89 -18.72)"/></g><path class="cls-6" d="M438.23,398.69h0l-4.89.08-20.22.84,2.67-5.78a6,6,0,0,1,7-4.52l-2.23-1.42s-4-2.25-6,2.87c0,0-1.58,8.41-9.23,9.77l28-.32.18.05,0,4.45a7.37,7.37,0,0,0-.09,1.33c.11,3.3,3.44,5.18,5.78,5.09s4.15-2.82,4-6.12S440.55,398.7,438.23,398.69Z" transform="translate(-4.89 -18.72)"/><path class="cls-6" d="M438.23,398.69h0l-4.89.08-20.22.84,2.67-5.78a6,6,0,0,1,7-4.52l-2.23-1.42s-4-2.25-6,2.87c0,0-1.58,8.41-9.23,9.77l28-.32.18.05,0,4.45a7.37,7.37,0,0,0-.09,1.33c.11,3.3,3.44,5.18,5.78,5.09s4.15-2.82,4-6.12S440.55,398.7,438.23,398.69Z" transform="translate(-4.89 -18.72)"/><path class="cls-6" d="M438.23,398.69h0l-4.89.08-20.22.84,2.67-5.78a6,6,0,0,1,7-4.52l-2.23-1.42s-4-2.25-6,2.87c0,0-1.58,8.41-9.23,9.77l28-.32.18.05,0,4.45a7.37,7.37,0,0,0-.09,1.33c.11,3.3,3.44,5.18,5.78,5.09s4.15-2.82,4-6.12S440.55,398.7,438.23,398.69Z" transform="translate(-4.89 -18.72)"/><path class="cls-6" d="M438.23,398.69h0l-4.89.08-20.22.84,2.67-5.78a6,6,0,0,1,7-4.52l-2.23-1.42s-4-2.25-6,2.87c0,0-1.58,8.41-9.23,9.77l28-.32.18.05,0,4.45a7.37,7.37,0,0,0-.09,1.33c.11,3.3,3.44,5.18,5.78,5.09s4.15-2.82,4-6.12S440.55,398.7,438.23,398.69Z" transform="translate(-4.89 -18.72)"/><path class="cls-6" d="M384.54,285.5h0l-4.89.09-20.22.83,2.68-5.78a6,6,0,0,1,7-4.51l-2.23-1.42s-4-2.25-6,2.86c0,0-1.59,8.41-9.24,9.78l28-.33.17.06,0,4.45a6.46,6.46,0,0,0-.08,1.32c.11,3.3,3.44,5.18,5.78,5.1s4.14-2.83,4-6.13S386.86,285.5,384.54,285.5Z" transform="translate(-4.89 -18.72)"/><path class="cls-6" d="M430.33,261.2h0l-4.89.08-20.23.84,2.68-5.78a6,6,0,0,1,7-4.52l-2.23-1.42s-4-2.25-6,2.86c0,0-1.58,8.41-9.24,9.78l28-.33.17.06,0,4.45a8.36,8.36,0,0,0-.08,1.32c.11,3.3,3.44,5.18,5.78,5.1s4.14-2.82,4-6.12S432.64,261.21,430.33,261.2Z" transform="translate(-4.89 -18.72)"/><path class="cls-6" d="M438.23,398.69h0l-4.89.08-20.22.84,2.67-5.78a6,6,0,0,1,7-4.52l-2.23-1.42s-4-2.25-6,2.87c0,0-1.58,8.41-9.23,9.77l28-.32.18.05,0,4.45a7.37,7.37,0,0,0-.09,1.33c.11,3.3,3.44,5.18,5.78,5.09s4.15-2.82,4-6.12S440.55,398.7,438.23,398.69Z" transform="translate(-4.89 -18.72)"/><path class="cls-6" d="M407.8,164.77h0l-4.89.09-20.22.83,2.67-5.78a6,6,0,0,1,7-4.52L390.13,154s-4-2.26-6,2.86c0,0-1.59,8.41-9.24,9.78l28-.33.17.06,0,4.44a6.56,6.56,0,0,0-.08,1.33c.1,3.3,3.44,5.18,5.77,5.1s4.15-2.83,4-6.13S410.12,164.78,407.8,164.77Z" transform="translate(-4.89 -18.72)"/><path class="cls-6" d="M708.73,417.36h0l-4.89.09-20.22.83,2.68-5.78a6,6,0,0,1,7-4.52l-2.23-1.42s-4-2.25-6,2.87c0,0-1.59,8.41-9.24,9.78l28-.33.17.06,0,4.44a6.56,6.56,0,0,0-.08,1.33c.11,3.3,3.44,5.18,5.77,5.1s4.15-2.83,4-6.13S711.05,417.37,708.73,417.36Z" transform="translate(-4.89 -18.72)"/><path class="cls-6" d="M673.89,401.21c-10.73-1.16-13.7-12.66-13.7-12.66-3.26-6.89-8.62-3.38-8.62-3.38l-1.89,1.4a6.91,6.91,0,0,0-3.39.79l-3,1.93c8-1.47,10.09,4.88,10.09,4.88l4.12,6.67-22.46.64-.06-6.12a9.39,9.39,0,0,0,.12-1.84c-.15-4.58-4.78-7.19-8-7.08s-5.75,3.92-5.6,8.51,3.78,8.77,7,8.77h0l6.79-.12v-.15Zm-15.16-8.28,3.6,6.57a17,17,0,0,1-7.43-9.2,7.24,7.24,0,0,0-2.88-3.1C657.25,387.87,658.73,392.93,658.73,392.93Z" transform="translate(-4.89 -18.72)"/><path class="cls-6" d="M746.78,538.56c-10.73-1.16-13.7-12.66-13.7-12.66-3.26-6.89-8.62-3.38-8.62-3.38l-1.89,1.4a6.91,6.91,0,0,0-3.39.79l-3,1.93c8-1.47,10.1,4.88,10.1,4.88l4.12,6.67-22.46.64-.06-6.12a9.44,9.44,0,0,0,.12-1.84c-.15-4.58-4.78-7.19-8-7.08s-5.75,3.92-5.6,8.51,3.78,8.76,7,8.77h0l6.79-.12v-.16Zm-15.16-8.28,3.6,6.57a17,17,0,0,1-7.43-9.2,7.19,7.19,0,0,0-2.88-3.1C730.14,525.22,731.62,530.28,731.62,530.28Z" transform="translate(-4.89 -18.72)"/><path class="cls-6" d="M746.78,538.56c-10.73-1.16-13.7-12.66-13.7-12.66-3.26-6.89-8.62-3.38-8.62-3.38l-1.89,1.4a6.91,6.91,0,0,0-3.39.79l-3,1.93c8-1.47,10.1,4.88,10.1,4.88l4.12,6.67-22.46.64-.06-6.12a9.44,9.44,0,0,0,.12-1.84c-.15-4.58-4.78-7.19-8-7.08s-5.75,3.92-5.6,8.51,3.78,8.76,7,8.77h0l6.79-.12v-.16Zm-15.16-8.28,3.6,6.57a17,17,0,0,1-7.43-9.2,7.19,7.19,0,0,0-2.88-3.1C730.14,525.22,731.62,530.28,731.62,530.28Z" transform="translate(-4.89 -18.72)"/><path class="cls-6" d="M384.17,206.27c-10.29,3.26-17.63-6.08-17.63-6.08-5.76-5-9.25.37-9.25.37l-1.18,2a7,7,0,0,0-2.78,2.08l-1.94,3c6.77-4.57,11.2.41,11.2.41l6.46,4.45-20.31,9.62-2.51-5.58a10.19,10.19,0,0,0-.63-1.73c-2-4.14-7.27-4.67-10.2-3.26s-3.69,5.9-1.71,10,7,6.51,9.93,5.22h0l6.17-2.84-.07-.13ZM367,204.79l5.93,4.57a17.06,17.06,0,0,1-10.5-5.44,7.13,7.13,0,0,0-3.87-1.68C363.57,200.75,367,204.79,367,204.79Z" transform="translate(-4.89 -18.72)"/><path class="cls-6" d="M394.79,385.2c-10.73-1.15-13.7-12.66-13.7-12.66-3.26-6.89-8.61-3.38-8.61-3.38l-1.9,1.4a7.07,7.07,0,0,0-3.38.79l-3,1.93c8-1.47,10.09,4.88,10.09,4.88l4.12,6.67-22.46.64-.06-6.11a9.49,9.49,0,0,0,.12-1.84c-.15-4.59-4.78-7.2-8-7.09s-5.75,3.93-5.6,8.51,3.78,8.77,7,8.78h0l6.79-.12,0-.15Zm-15.16-8.27,3.6,6.56a17,17,0,0,1-7.43-9.2,7.22,7.22,0,0,0-2.88-3.09C378.15,371.86,379.63,376.93,379.63,376.93Z" transform="translate(-4.89 -18.72)"/><path class="cls-6" d="M519.22,312.52c-10.73-1.15-13.7-12.65-13.7-12.65-3.26-6.89-8.61-3.38-8.61-3.38l-1.9,1.39a7.07,7.07,0,0,0-3.38.79l-3,1.94c8-1.48,10.09,4.87,10.09,4.87l4.13,6.67-22.47.65-.06-6.12a9.49,9.49,0,0,0,.12-1.84c-.15-4.59-4.78-7.2-8-7.08s-5.76,3.92-5.61,8.5,3.78,8.77,7,8.78h0l6.79-.12,0-.15Zm-15.16-8.27,3.6,6.57a17.08,17.08,0,0,1-7.43-9.21,7.26,7.26,0,0,0-2.87-3.09C502.58,299.18,504.06,304.25,504.06,304.25Z" transform="translate(-4.89 -18.72)"/><path class="cls-6" d="M461.12,308.58c-10.72-1.16-13.69-12.66-13.69-12.66-3.26-6.89-8.62-3.38-8.62-3.38l-1.9,1.4a6.87,6.87,0,0,0-3.38.79l-3,1.93c8-1.47,10.1,4.88,10.1,4.88l4.12,6.67-22.47.64-.05-6.12a11.23,11.23,0,0,0,.12-1.84c-.16-4.58-4.78-7.19-8-7.08s-5.76,3.92-5.61,8.51,3.79,8.77,7,8.77h0l6.79-.12v-.15ZM446,300.3l3.59,6.57a17,17,0,0,1-7.43-9.2,7.16,7.16,0,0,0-2.87-3.1C444.48,295.24,446,300.3,446,300.3Z" transform="translate(-4.89 -18.72)"/><path class="cls-6" d="M623,361.59c-10.73-1.15-13.7-12.65-13.7-12.65-3.26-6.89-8.61-3.38-8.61-3.38l-1.9,1.4a7,7,0,0,0-3.39.78l-3,1.94c8-1.47,10.09,4.87,10.09,4.87l4.12,6.67-22.46.65-.06-6.12a9.49,9.49,0,0,0,.12-1.84c-.15-4.59-4.78-7.2-8-7.08s-5.75,3.92-5.6,8.5,3.78,8.77,7,8.78h0l6.79-.12,0-.15Zm-15.16-8.27,3.6,6.57a17,17,0,0,1-7.43-9.21,7.22,7.22,0,0,0-2.88-3.09C606.37,348.26,607.85,353.32,607.85,353.32Z" transform="translate(-4.89 -18.72)"/><path class="cls-6" d="M446.33,217.45c-10.73-1.15-13.69-12.65-13.69-12.65-3.27-6.89-8.62-3.38-8.62-3.38l-1.9,1.4a7,7,0,0,0-3.38.78l-3,1.94c8-1.47,10.09,4.87,10.09,4.87l4.13,6.67-22.47.65,0-6.12a10.33,10.33,0,0,0,.11-1.84c-.15-4.59-4.77-7.19-8-7.08s-5.76,3.92-5.61,8.51,3.78,8.76,7,8.77h0l6.79-.11,0-.16Zm-15.15-8.27,3.59,6.57a17.08,17.08,0,0,1-7.43-9.2,7.17,7.17,0,0,0-2.87-3.1C429.69,204.12,431.18,209.18,431.18,209.18Z" transform="translate(-4.89 -18.72)"/><path class="cls-6" d="M500.28,435.7C489.55,434.54,486.59,423,486.59,423c-3.27-6.89-8.62-3.38-8.62-3.38l-1.9,1.4a6.87,6.87,0,0,0-3.38.79l-3,1.93c8-1.47,10.09,4.88,10.09,4.88l4.13,6.67-22.47.64-.05-6.12a10.28,10.28,0,0,0,.11-1.84c-.15-4.58-4.77-7.19-8-7.08s-5.76,3.92-5.61,8.51,3.78,8.77,7,8.77h0l6.79-.12,0-.16Zm-15.15-8.28,3.59,6.57a17,17,0,0,1-7.43-9.2,7.11,7.11,0,0,0-2.87-3.1C483.64,422.36,485.13,427.42,485.13,427.42Z" transform="translate(-4.89 -18.72)"/><path class="cls-6" d="M704.09,453.09c-10.72-1.16-13.69-12.66-13.69-12.66-3.26-6.89-8.62-3.38-8.62-3.38l-1.9,1.4a6.87,6.87,0,0,0-3.38.79l-3,1.93c8-1.47,10.1,4.88,10.1,4.88l4.12,6.67-22.47.64,0-6.12a11.3,11.3,0,0,0,.12-1.84c-.16-4.58-4.78-7.19-8-7.08s-5.76,3.92-5.61,8.51,3.79,8.77,7,8.77h0l6.79-.12v-.16Zm-15.15-8.28,3.59,6.57a17,17,0,0,1-7.43-9.2,7.11,7.11,0,0,0-2.87-3.1C687.45,439.75,688.94,444.81,688.94,444.81Z" transform="translate(-4.89 -18.72)"/><path class="cls-6" d="M573,483.14c-10.73-1.16-13.69-12.66-13.69-12.66-3.26-6.89-8.62-3.38-8.62-3.38l-1.9,1.4a7,7,0,0,0-3.38.78l-3,1.94c8-1.47,10.09,4.88,10.09,4.88l4.13,6.67-22.47.64-.05-6.12a11.3,11.3,0,0,0,.12-1.84c-.16-4.58-4.78-7.19-8-7.08s-5.76,3.92-5.61,8.51,3.78,8.76,7,8.77h0l6.79-.12,0-.16Zm-15.15-8.28,3.59,6.57a17,17,0,0,1-7.43-9.2,7.11,7.11,0,0,0-2.87-3.1C556.36,469.8,557.85,474.86,557.85,474.86Z" transform="translate(-4.89 -18.72)"/><path class="cls-6" d="M397.24,338.6c-10.73-1.16-13.7-12.66-13.7-12.66-3.26-6.89-8.61-3.38-8.61-3.38L373,324a6.84,6.84,0,0,0-3.38.79l-3,1.93c8-1.47,10.09,4.88,10.09,4.88l4.12,6.67-22.46.64-.06-6.12a9.39,9.39,0,0,0,.12-1.84c-.15-4.58-4.78-7.19-8-7.08s-5.75,3.92-5.6,8.51,3.78,8.77,7,8.77h0l6.79-.12,0-.15Zm-15.16-8.27,3.6,6.56a17,17,0,0,1-7.43-9.2,7.24,7.24,0,0,0-2.88-3.1C380.6,325.26,382.08,330.33,382.08,330.33Z" transform="translate(-4.89 -18.72)"/><path class="cls-6" d="M516.05,389.79c-10.73-1.15-13.7-12.65-13.7-12.65-3.26-6.89-8.62-3.38-8.62-3.38l-1.89,1.4a7,7,0,0,0-3.39.78l-3,1.94c8-1.47,10.09,4.88,10.09,4.88l4.12,6.67-22.46.64-.06-6.12a9.44,9.44,0,0,0,.12-1.84c-.15-4.58-4.78-7.19-8-7.08s-5.75,3.92-5.6,8.51,3.78,8.76,7,8.77h0l6.8-.11,0-.16Zm-15.16-8.27,3.6,6.57a17,17,0,0,1-7.43-9.2,7.19,7.19,0,0,0-2.88-3.1C499.41,376.46,500.89,381.52,500.89,381.52Z" transform="translate(-4.89 -18.72)"/><path class="cls-6" d="M559.72,278.6C549,277.45,546,266,546,266c-3.27-6.89-8.62-3.38-8.62-3.38l-1.9,1.39a7.09,7.09,0,0,0-3.38.79l-3,1.94c8-1.48,10.09,4.87,10.09,4.87l4.13,6.67-22.47.64,0-6.11a10.33,10.33,0,0,0,.11-1.84c-.15-4.59-4.77-7.2-8-7.08s-5.76,3.92-5.61,8.5,3.78,8.77,7,8.78h0l6.79-.12,0-.15Zm-15.15-8.27,3.59,6.57a17.08,17.08,0,0,1-7.43-9.21,7.14,7.14,0,0,0-2.87-3.09C543.08,265.26,544.57,270.33,544.57,270.33Z" transform="translate(-4.89 -18.72)"/><path class="cls-6" d="M587.32,456.29c-10.73-1.15-13.7-12.65-13.7-12.65-3.26-6.89-8.61-3.38-8.61-3.38l-1.9,1.4a7,7,0,0,0-3.38.78l-3,1.94c8-1.47,10.09,4.87,10.09,4.87l4.13,6.68-22.47.64-.06-6.12a9.44,9.44,0,0,0,.12-1.84c-.15-4.59-4.78-7.19-8-7.08s-5.76,3.92-5.61,8.51,3.78,8.76,7,8.77h0l6.79-.11,0-.16ZM572.16,448l3.6,6.57a17.08,17.08,0,0,1-7.43-9.2,7.23,7.23,0,0,0-2.87-3.1C570.68,443,572.16,448,572.16,448Z" transform="translate(-4.89 -18.72)"/><path class="cls-6" d="M477.86,167.93c-10.72-1.15-13.69-12.66-13.69-12.66-3.26-6.89-8.62-3.38-8.62-3.38l-1.9,1.4a7.12,7.12,0,0,0-3.38.79l-3,1.93c8-1.47,10.1,4.88,10.1,4.88l4.12,6.67-22.47.64-.05-6.11a11.38,11.38,0,0,0,.12-1.84c-.16-4.59-4.78-7.2-8-7.09s-5.76,3.93-5.61,8.51,3.79,8.77,7,8.77h0l6.79-.12v-.15Zm-15.15-8.27,3.59,6.56a17,17,0,0,1-7.43-9.2,7.14,7.14,0,0,0-2.87-3.09C461.22,154.59,462.71,159.66,462.71,159.66Z" transform="translate(-4.89 -18.72)"/><path class="cls-6" d="M692.86,514.36c-10.73-1.16-13.69-12.66-13.69-12.66-3.27-6.89-8.62-3.38-8.62-3.38l-1.9,1.4a7,7,0,0,0-3.38.79l-3,1.93c8-1.47,10.09,4.88,10.09,4.88l4.13,6.67-22.47.64,0-6.11a10.39,10.39,0,0,0,.11-1.85c-.15-4.58-4.77-7.19-8-7.08s-5.76,3.93-5.61,8.51,3.78,8.77,7,8.77h0l6.79-.12,0-.15Zm-15.16-8.27,3.6,6.56a17,17,0,0,1-7.43-9.2,7.22,7.22,0,0,0-2.87-3.1C676.22,501,677.7,506.09,677.7,506.09Z" transform="translate(-4.89 -18.72)"/><path class="cls-6" d="M740.92,501l0,2.58a4,4,0,0,0-.05.77,3.29,3.29,0,0,0,3.36,3c1.36,0,2.4-1.64,2.34-3.56s-1.58-3.66-2.93-3.66h0l-2.84.05-9.61.4-.46-13.89-.82,0,.46,13.89-1.19.05-.46-13.94h.15l11.45-.13.1,0,0,2.59a3.94,3.94,0,0,0-.05.77,3.3,3.3,0,0,0,3.36,3c1.36-.05,2.41-1.64,2.34-3.56s-1.58-3.67-2.92-3.67h0l-2.84.05-11.64.14h-.38l-4.3.06.5,15.25,16.28-.19Z" transform="translate(-4.89 -18.72)"/><path class="cls-6" d="M594.38,418.52l0,2.58a3.94,3.94,0,0,0,0,.77,3.29,3.29,0,0,0,3.36,3c1.36-.05,2.41-1.64,2.34-3.56s-1.58-3.67-2.92-3.67h0l-2.84,0-9.62.4-.46-13.89-.82,0,.46,13.89-1.19.05-.46-13.95h.15l11.45-.13.1,0,0,2.58a5.06,5.06,0,0,0,0,.77,3.31,3.31,0,0,0,3.36,3c1.36,0,2.41-1.64,2.34-3.56s-1.58-3.67-2.92-3.67h0l-2.84.05-11.64.14h-.37l-4.31.05.51,15.26,16.28-.19Z" transform="translate(-4.89 -18.72)"/><path class="cls-6" d="M594.38,418.52l0,2.58a3.94,3.94,0,0,0,0,.77,3.29,3.29,0,0,0,3.36,3c1.36-.05,2.41-1.64,2.34-3.56s-1.58-3.67-2.92-3.67h0l-2.84,0-9.62.4-.46-13.89-.82,0,.46,13.89-1.19.05-.46-13.95h.15l11.45-.13.1,0,0,2.58a5.06,5.06,0,0,0,0,.77,3.31,3.31,0,0,0,3.36,3c1.36,0,2.41-1.64,2.34-3.56s-1.58-3.67-2.92-3.67h0l-2.84.05-11.64.14h-.37l-4.31.05.51,15.26,16.28-.19Z" transform="translate(-4.89 -18.72)"/><path class="cls-6" d="M407.09,426.55l0,2.59a3.94,3.94,0,0,0-.05.77,3.29,3.29,0,0,0,3.35,3c1.36-.05,2.41-1.64,2.35-3.56s-1.58-3.67-2.93-3.67h0l-2.84.05-9.62.4-.46-13.89-.81,0,.46,13.89-1.19.05-.46-13.95h.14l11.45-.13.1,0,0,2.58a4,4,0,0,0-.05.77,3.31,3.31,0,0,0,3.36,3c1.35-.05,2.4-1.64,2.34-3.56s-1.58-3.67-2.93-3.67h0l-2.84.05-11.63.14h-.38l-4.3.05.5,15.26,16.28-.19Z" transform="translate(-4.89 -18.72)"/><path class="cls-6" d="M742.29,449.43l0,2.59a4.9,4.9,0,0,0,0,.77,3.31,3.31,0,0,0,3.36,3c1.36-.05,2.41-1.64,2.35-3.56s-1.59-3.67-2.93-3.67h0l-2.84.05-9.62.4-.46-13.89-.81,0,.46,13.89-1.19.05-.47-13.95h.15l11.45-.13.1,0,0,2.58a4,4,0,0,0-.05.77,3.3,3.3,0,0,0,3.35,3c1.36-.05,2.41-1.65,2.35-3.56s-1.58-3.67-2.93-3.67h0l-2.84.05-11.63.15h-.38l-4.31.05.51,15.26,16.28-.19Z" transform="translate(-4.89 -18.72)"/><path class="cls-6" d="M634.63,448.67l0,2.58a4,4,0,0,0,0,.77,3.3,3.3,0,0,0,3.36,3c1.36,0,2.41-1.64,2.34-3.55s-1.58-3.67-2.92-3.67h0l-2.84.05-9.62.4-.46-13.89-.82,0,.46,13.89-1.19,0-.46-13.94h.15l11.45-.14.1,0,0,2.58a4.9,4.9,0,0,0,0,.77,3.3,3.3,0,0,0,3.36,3c1.36-.05,2.41-1.64,2.34-3.56s-1.58-3.66-2.92-3.67h0l-2.84.05-11.64.14h-.37l-4.31.05.51,15.26,16.28-.19Z" transform="translate(-4.89 -18.72)"/><path class="cls-6" d="M489,348.44l0,2.59a3.94,3.94,0,0,0-.05.77,3.29,3.29,0,0,0,3.35,3c1.36-.05,2.41-1.64,2.35-3.56s-1.58-3.67-2.93-3.67h0l-2.84.05-9.62.4-.46-13.89-.81,0L478.5,348l-1.19.05-.46-13.95H477l11.45-.13.1,0,0,2.58a4,4,0,0,0-.05.77,3.29,3.29,0,0,0,3.35,3c1.36,0,2.41-1.64,2.35-3.55s-1.58-3.67-2.93-3.67h0l-2.84.05-11.63.15h-.38l-4.3,0,.5,15.26,16.28-.19Z" transform="translate(-4.89 -18.72)"/><path class="cls-6" d="M521,240.19l0,2.59a3.94,3.94,0,0,0,0,.77,3.29,3.29,0,0,0,3.35,3c1.36,0,2.41-1.64,2.35-3.56s-1.58-3.67-2.93-3.67h0l-2.84.05-9.62.4-.46-13.89-.81,0,.46,13.89-1.19.05-.47-13.95h.15l11.45-.13.1,0,0,2.58a4,4,0,0,0,0,.77,3.29,3.29,0,0,0,3.35,3c1.36,0,2.41-1.64,2.35-3.55s-1.58-3.67-2.93-3.67h0l-2.84.05-11.63.14h-.38l-4.31.05.51,15.26,16.28-.19Z" transform="translate(-4.89 -18.72)"/><path class="cls-6" d="M559,397.07l0,2.59a4.9,4.9,0,0,0,0,.77,3.31,3.31,0,0,0,3.36,3c1.36-.05,2.41-1.64,2.34-3.56s-1.58-3.67-2.92-3.67h0l-2.84,0-9.62.39-.46-13.88-.82,0,.47,13.89-1.19.05-.47-13.95H547l11.45-.13.1,0,0,2.58a4,4,0,0,0,0,.77,3.28,3.28,0,0,0,3.35,3c1.36,0,2.41-1.64,2.35-3.55s-1.58-3.67-2.93-3.67h0l-2.84,0-11.63.15h-.38l-4.31.05.51,15.26,16.28-.19Z" transform="translate(-4.89 -18.72)"/><path class="cls-6" d="M470.66,249.12l0,2.58a4,4,0,0,0-.05.77,3.31,3.31,0,0,0,3.36,3c1.35-.05,2.4-1.65,2.34-3.56s-1.58-3.67-2.92-3.67h0l-2.84,0-9.61.39-.46-13.88-.82,0,.46,13.9-1.19,0-.46-13.94h.15l11.45-.14.1,0,0,2.58a3.94,3.94,0,0,0-.05.77,3.3,3.3,0,0,0,3.36,3c1.36-.05,2.41-1.64,2.34-3.56s-1.58-3.66-2.92-3.67h0l-2.84,0-11.64.14h-.38l-4.3.05.5,15.26,16.28-.19Z" transform="translate(-4.89 -18.72)"/><path class="cls-6" d="M538.85,365.75l0,2.58a5.06,5.06,0,0,0,0,.77,3.3,3.3,0,0,0,3.36,3c1.36,0,2.41-1.64,2.34-3.55s-1.58-3.67-2.92-3.67h0l-2.84.05-9.62.4-.46-13.88-.82,0,.46,13.89-1.19.05-.46-13.94h.15l11.45-.14.1,0,0,2.58a4.9,4.9,0,0,0,0,.77,3.3,3.3,0,0,0,3.36,3c1.36-.05,2.41-1.64,2.35-3.56s-1.59-3.66-2.93-3.67h0l-2.84.05-11.63.14h-.38l-4.31,0,.51,15.26,16.28-.19Z" transform="translate(-4.89 -18.72)"/><path class="cls-6" d="M468.43,206.72l0,2.59a3.94,3.94,0,0,0,0,.77,3.3,3.3,0,0,0,3.36,3c1.35,0,2.4-1.64,2.34-3.56s-1.58-3.67-2.93-3.67h0l-2.84.05-9.61.4-.46-13.89-.82,0,.46,13.89-1.19.05-.46-14h.15l11.44-.13.11,0,0,2.58a4,4,0,0,0-.05.77,3.31,3.31,0,0,0,3.36,3c1.35-.05,2.4-1.65,2.34-3.56s-1.58-3.67-2.93-3.67h0l-2.84,0-11.63.15h-.38l-4.3.05.5,15.26,16.28-.19Z" transform="translate(-4.89 -18.72)"/><path class="cls-6" d="M425.72,367.37l0,2.58a5,5,0,0,0-.05.77,3.3,3.3,0,0,0,3.36,3c1.36,0,2.41-1.64,2.35-3.55s-1.59-3.67-2.93-3.67h0l-2.84.05-9.62.4L415.55,353l-.82,0,.46,13.89L414,367,413.54,353h.15l11.45-.14.1,0,0,2.58a3.94,3.94,0,0,0,0,.77,3.28,3.28,0,0,0,3.35,3c1.36-.05,2.41-1.64,2.35-3.56S429.34,352,428,352h0l-2.84.05-11.63.14h-.38l-4.31.06.51,15.25,16.28-.18Z" transform="translate(-4.89 -18.72)"/><path class="cls-6" d="M526,433.17l0,2.58a4.9,4.9,0,0,0-.05.77,3.3,3.3,0,0,0,3.36,3c1.36-.05,2.41-1.64,2.34-3.56s-1.58-3.66-2.92-3.67h0l-2.84.05-9.62.4-.46-13.89-.82,0,.46,13.89-1.18,0-.47-13.95h.15l11.45-.13.1,0,0,2.59a4.85,4.85,0,0,0,0,.76,3.31,3.31,0,0,0,3.36,3c1.36-.05,2.41-1.64,2.35-3.56s-1.59-3.67-2.93-3.67h0l-2.84.05-11.64.14h-.37l-4.31.05.51,15.26,16.28-.19Z" transform="translate(-4.89 -18.72)"/><path class="cls-6" d="M569.63,322l0,2.59a3.94,3.94,0,0,0,0,.77,3.3,3.3,0,0,0,3.35,3c1.36-.05,2.41-1.64,2.35-3.56s-1.58-3.67-2.93-3.67h0l-2.84.05-9.61.39-.46-13.88-.82,0,.46,13.89-1.19,0-.46-13.95h.14l11.45-.13.11,0,0,2.58a4,4,0,0,0,0,.77,3.29,3.29,0,0,0,3.36,3c1.35,0,2.4-1.64,2.34-3.55s-1.58-3.67-2.93-3.67h0l-2.84.05-11.63.14h-.38l-4.3.05.5,15.26,16.28-.19Z" transform="translate(-4.89 -18.72)"/><path class="cls-6" d="M605.66,491.65l0,2.59a3.94,3.94,0,0,0-.05.77,3.31,3.31,0,0,0,3.36,3c1.35-.05,2.4-1.64,2.34-3.56s-1.58-3.67-2.93-3.67h0l-2.84.05-9.61.39-.46-13.88-.82,0,.46,13.89-1.19,0-.46-13.95h.15l11.45-.13.1,0,0,2.58a4,4,0,0,0-.05.77,3.29,3.29,0,0,0,3.36,3c1.36,0,2.4-1.64,2.34-3.55s-1.58-3.67-2.93-3.67h0l-2.83.05-11.64.14h-.38l-4.3.05.5,15.26,16.28-.19Z" transform="translate(-4.89 -18.72)"/><path class="cls-6" d="M703.26,489.22l0,2.58a4.9,4.9,0,0,0,0,.77,3.3,3.3,0,0,0,3.36,3c1.36,0,2.41-1.64,2.34-3.56s-1.58-3.66-2.92-3.67h0l-2.84.05-9.62.4-.46-13.89-.82,0,.46,13.89-1.18.05-.47-13.94h.15l11.45-.13.1,0,0,2.59a3.94,3.94,0,0,0,0,.77,3.29,3.29,0,0,0,3.35,3c1.36-.05,2.41-1.64,2.35-3.56s-1.58-3.67-2.93-3.67h0l-2.84.05-11.63.14h-.38l-4.31.06.51,15.25,16.28-.19Z" transform="translate(-4.89 -18.72)"/><path class="cls-6" d="M703.26,489.22l0,2.58a4.9,4.9,0,0,0,0,.77,3.3,3.3,0,0,0,3.36,3c1.36,0,2.41-1.64,2.34-3.56s-1.58-3.66-2.92-3.67h0l-2.84.05-9.62.4-.46-13.89-.82,0,.46,13.89-1.18.05-.47-13.94h.15l11.45-.13.1,0,0,2.59a3.94,3.94,0,0,0,0,.77,3.29,3.29,0,0,0,3.35,3c1.36-.05,2.41-1.64,2.35-3.56s-1.58-3.67-2.93-3.67h0l-2.84.05-11.63.14h-.38l-4.31.06.51,15.25,16.28-.19Z" transform="translate(-4.89 -18.72)"/><path class="cls-6" d="M390.3,253.8l0,2.58a5,5,0,0,0-.05.77,3.3,3.3,0,0,0,3.36,3c1.36-.05,2.41-1.64,2.35-3.56s-1.59-3.66-2.93-3.67h0l-2.84.05-9.62.4-.46-13.89-.82,0,.47,13.89-1.19,0-.47-13.94h.15l11.45-.13.1,0,0,2.59a3.94,3.94,0,0,0,0,.77,3.29,3.29,0,0,0,3.35,3c1.36-.05,2.41-1.64,2.35-3.56s-1.58-3.67-2.93-3.67h0l-2.84.05-11.63.14h-.38l-4.31.06.51,15.25,16.28-.19Z" transform="translate(-4.89 -18.72)"/><path class="cls-6" d="M343.8,34.77h0l-4.89.09-20.22.83,2.67-5.78a6,6,0,0,1,7-4.52L326.13,24s-4-2.26-6,2.86c0,0-1.59,8.41-9.24,9.78l28-.33.17.06,0,4.44a6.56,6.56,0,0,0-.08,1.33c.1,3.3,3.44,5.18,5.77,5.1s4.15-2.83,4-6.13S346.12,34.78,343.8,34.77Z" transform="translate(-4.89 -18.72)"/><path class="cls-6" d="M320.17,76.27c-10.29,3.26-17.63-6.08-17.63-6.08-5.76-5-9.25.37-9.25.37l-1.18,2a7,7,0,0,0-2.78,2.08l-1.94,3c6.77-4.57,11.2.41,11.2.41l6.46,4.45-20.31,9.62-2.51-5.58a10.19,10.19,0,0,0-.63-1.73c-2-4.14-7.27-4.67-10.2-3.26s-3.69,5.9-1.71,10,7,6.51,9.93,5.22h0L285.79,94l-.07-.13ZM303,74.79l5.93,4.57a17.06,17.06,0,0,1-10.5-5.44,7.13,7.13,0,0,0-3.87-1.68C299.57,70.75,303,74.79,303,74.79Z" transform="translate(-4.89 -18.72)"/><path class="cls-6" d="M382.33,87.45C371.6,86.3,368.64,74.8,368.64,74.8c-3.27-6.89-8.62-3.38-8.62-3.38l-1.9,1.4a7,7,0,0,0-3.38.78l-3,1.94c8-1.47,10.09,4.87,10.09,4.87L366,87.08l-22.47.65,0-6.12a10.33,10.33,0,0,0,.11-1.84c-.15-4.59-4.77-7.19-8-7.08S329.8,76.61,330,81.2,333.73,90,337,90h0l6.79-.11,0-.16Zm-15.15-8.27,3.59,6.57a17.08,17.08,0,0,1-7.43-9.2,7.17,7.17,0,0,0-2.87-3.1C365.69,74.12,367.18,79.18,367.18,79.18Z" transform="translate(-4.89 -18.72)"/><path class="cls-6" d="M413.86,37.93c-10.72-1.15-13.69-12.66-13.69-12.66-3.26-6.89-8.62-3.38-8.62-3.38l-1.9,1.4a7.12,7.12,0,0,0-3.38.79l-3,1.93c8-1.47,10.1,4.88,10.1,4.88l4.12,6.67-22.47.64L375,32.09a11.38,11.38,0,0,0,.12-1.84c-.16-4.59-4.78-7.2-8-7.09s-5.76,3.93-5.61,8.51,3.79,8.77,7,8.77h0l6.79-.12v-.15Zm-15.15-8.27,3.59,6.56a17,17,0,0,1-7.43-9.2A7.14,7.14,0,0,0,392,23.93C397.22,24.59,398.71,29.66,398.71,29.66Z" transform="translate(-4.89 -18.72)"/><path class="cls-6" d="M457,110.19l0,2.59a3.94,3.94,0,0,0,0,.77,3.29,3.29,0,0,0,3.35,3c1.36-.05,2.41-1.64,2.35-3.56s-1.58-3.67-2.93-3.67h0l-2.84,0-9.62.4-.46-13.89-.81,0,.46,13.89-1.19,0-.47-14h.15l11.45-.13.1,0,0,2.58a4,4,0,0,0,0,.77,3.29,3.29,0,0,0,3.35,3c1.36,0,2.41-1.64,2.35-3.55s-1.58-3.67-2.93-3.67h0l-2.84.05L444.77,95h-.38l-4.31,0,.51,15.26,16.28-.19Z" transform="translate(-4.89 -18.72)"/><path class="cls-6" d="M406.66,119.12l0,2.58a4,4,0,0,0-.05.77,3.31,3.31,0,0,0,3.36,3c1.35,0,2.4-1.65,2.34-3.56s-1.58-3.67-2.92-3.67h0l-2.84.05-9.61.39-.46-13.88-.82,0,.46,13.9-1.19,0-.46-13.94h.15l11.45-.14.1,0,0,2.58a3.94,3.94,0,0,0-.05.77,3.3,3.3,0,0,0,3.36,3c1.36,0,2.41-1.64,2.34-3.56s-1.58-3.66-2.92-3.67h0l-2.84,0-11.64.14h-.38l-4.3,0,.5,15.26,16.28-.19Z" transform="translate(-4.89 -18.72)"/><path class="cls-6" d="M404.43,76.72l0,2.59a3.94,3.94,0,0,0,0,.77,3.3,3.3,0,0,0,3.36,3c1.35-.05,2.4-1.64,2.34-3.56s-1.58-3.67-2.93-3.67h0l-2.84,0-9.61.4-.46-13.89-.82,0,.46,13.89-1.19,0-.46-14h.15l11.44-.13.11,0,0,2.58a4,4,0,0,0-.05.77,3.31,3.31,0,0,0,3.36,3c1.35,0,2.4-1.65,2.34-3.56s-1.58-3.67-2.93-3.67h0l-2.84.05-11.63.15h-.38l-4.3,0,.5,15.26,16.28-.19Z" transform="translate(-4.89 -18.72)"/><path class="cls-6" d="M326.3,123.8l0,2.58a5,5,0,0,0-.05.77,3.3,3.3,0,0,0,3.36,3c1.36-.05,2.41-1.64,2.35-3.56s-1.59-3.66-2.93-3.67h0l-2.84.05-9.62.4-.46-13.89-.82,0,.47,13.89-1.19,0-.47-13.94h.15l11.45-.13.1,0,0,2.59a3.94,3.94,0,0,0,0,.77,3.29,3.29,0,0,0,3.35,3c1.36-.05,2.41-1.64,2.35-3.56s-1.58-3.67-2.93-3.67h0l-2.84,0-11.63.14h-.38l-4.31.06.51,15.25,16.28-.19Z" transform="translate(-4.89 -18.72)"/><path class="cls-6" d="M345.8,146.77h0l-4.89.09-20.22.83,2.67-5.78a6,6,0,0,1,7-4.52L328.13,136s-4-2.26-6,2.86c0,0-1.59,8.41-9.24,9.78l28-.33.17.06,0,4.44a6.56,6.56,0,0,0-.08,1.33c.1,3.3,3.44,5.18,5.77,5.1s4.15-2.83,4-6.13S348.12,146.78,345.8,146.77Z" transform="translate(-4.89 -18.72)"/><path class="cls-6" d="M341.17,288.27c-10.29,3.26-17.63-6.08-17.63-6.08-5.76-5-9.25.37-9.25.37l-1.18,2a7,7,0,0,0-2.78,2.08l-1.94,3c6.77-4.57,11.2.41,11.2.41l6.46,4.45-20.31,9.62-2.51-5.58a10.19,10.19,0,0,0-.63-1.73c-2-4.14-7.27-4.67-10.2-3.26s-3.69,5.9-1.71,10,7,6.51,9.93,5.22h0l6.17-2.84-.07-.13ZM324,286.79l5.93,4.57a17.06,17.06,0,0,1-10.5-5.44,7.13,7.13,0,0,0-3.87-1.68C320.57,282.75,324,286.79,324,286.79Z" transform="translate(-4.89 -18.72)"/><path class="cls-6" d="M96.33,57.45C85.6,56.3,82.64,44.8,82.64,44.8,79.37,37.91,74,41.42,74,41.42l-1.9,1.4a7,7,0,0,0-3.38.78l-3,1.94c8-1.47,10.09,4.87,10.09,4.87L80,57.08l-22.47.65-.05-6.12a10.33,10.33,0,0,0,.11-1.84c-.15-4.59-4.77-7.19-8-7.08S43.8,46.61,44,51.2,47.73,60,51,60h0l6.79-.11,0-.16ZM81.18,49.18l3.59,6.57a17.08,17.08,0,0,1-7.43-9.2,7.17,7.17,0,0,0-2.87-3.1C79.69,44.12,81.18,49.18,81.18,49.18Z" transform="translate(-4.89 -18.72)"/><path class="cls-6" d="M278.81,36.93c-10.73-1.15-13.7-12.66-13.7-12.66-3.26-6.89-8.61-3.38-8.61-3.38l-1.9,1.4a7.07,7.07,0,0,0-3.38.79l-3,1.93c8-1.47,10.09,4.88,10.09,4.88l4.13,6.67L240,37.2l-.06-6.11a9.49,9.49,0,0,0,.12-1.84c-.15-4.59-4.78-7.2-8-7.09s-5.76,3.93-5.61,8.51,3.78,8.77,7,8.77h0l6.79-.12,0-.15Zm-15.16-8.27,3.6,6.56a17,17,0,0,1-7.43-9.2A7.26,7.26,0,0,0,257,22.93C262.17,23.59,263.65,28.66,263.65,28.66Z" transform="translate(-4.89 -18.72)"/><path class="cls-6" d="M171,80.19l0,2.59a3.94,3.94,0,0,0,0,.77,3.29,3.29,0,0,0,3.35,3c1.36-.05,2.41-1.64,2.35-3.56s-1.58-3.67-2.93-3.67h0l-2.84,0-9.62.4-.46-13.89-.81,0,.46,13.89-1.19,0-.47-14h.15l11.45-.13.1,0,0,2.58a4,4,0,0,0-.05.77,3.29,3.29,0,0,0,3.35,3c1.36,0,2.41-1.64,2.35-3.55s-1.58-3.67-2.93-3.67h0l-2.84.05L158.77,65h-.38l-4.31,0,.51,15.26,16.28-.19Z" transform="translate(-4.89 -18.72)"/><path class="cls-6" d="M120.66,89.12l0,2.58a4,4,0,0,0-.05.77,3.31,3.31,0,0,0,3.36,3c1.35,0,2.4-1.65,2.34-3.56s-1.58-3.67-2.92-3.67h0l-2.84.05-9.61.39-.46-13.88-.82,0,.46,13.9-1.19,0-.46-13.94h.15l11.45-.14.1,0,0,2.58a3.94,3.94,0,0,0,0,.77,3.3,3.3,0,0,0,3.36,3c1.36,0,2.41-1.64,2.34-3.56s-1.58-3.66-2.92-3.67h0l-2.84,0L108.45,74h-.38l-4.3,0,.5,15.26,16.28-.19Z" transform="translate(-4.89 -18.72)"/><path class="cls-6" d="M118.43,46.72l0,2.59a3.94,3.94,0,0,0,0,.77,3.3,3.3,0,0,0,3.36,3c1.35,0,2.4-1.64,2.34-3.56s-1.58-3.67-2.93-3.67h0l-2.84,0-9.61.4-.46-13.89-.82,0,.46,13.89-1.19.05-.46-14h.15l11.44-.13.11,0,0,2.58a4,4,0,0,0,0,.77,3.31,3.31,0,0,0,3.36,3c1.35,0,2.4-1.65,2.34-3.56s-1.58-3.67-2.93-3.67h0l-2.84.05-11.63.15h-.38l-4.3.05.5,15.26,16.28-.19Z" transform="translate(-4.89 -18.72)"/><path class="cls-6" d="M40.3,93.8l0,2.58a5,5,0,0,0,0,.77,3.3,3.3,0,0,0,3.36,3c1.36,0,2.41-1.64,2.35-3.56s-1.59-3.66-2.93-3.67h0l-2.84.05-9.62.4-.46-13.89-.82,0,.47,13.89-1.19,0-.47-13.94h.15l11.45-.13.1,0,0,2.59a3.94,3.94,0,0,0,0,.77,3.29,3.29,0,0,0,3.35,3c1.36-.05,2.41-1.64,2.35-3.56s-1.58-3.67-2.93-3.67h0l-2.84,0-11.63.14h-.38l-4.31.06L23.92,94l16.28-.19Z" transform="translate(-4.89 -18.72)"/><path class="cls-6" d="M56.63,111.5h0l-1.75,4.56-6.81,19.07-4.35-4.65a6,6,0,0,1-1.57-8.18L40,123.83s-3.59,2.88.39,6.66c0,0,7.21,4.62,5.61,12.23l10.2-26.11.12-.13,4.13,1.63a7.33,7.33,0,0,0,1.2.57c3.1,1.14,6.09-1.25,6.89-3.45s-1.06-4.9-4.16-6S57.5,109.35,56.63,111.5Z" transform="translate(-4.89 -18.72)"/><path class="cls-6" d="M21.25,121C20.41,131.72,9,135,9,135c-6.79,3.46-3.12,8.71-3.12,8.71l1.45,1.86A6.91,6.91,0,0,0,8.22,149l2,2.92c-1.71-8,4.57-10.24,4.57-10.24l6.55-4.32,1.3,22.44-6.11.24a10.3,10.3,0,0,0-1.84-.07c-4.58.29-7,5-6.84,8.23s4.09,5.64,8.66,5.36,8.66-4,8.57-7.26h0l-.32-6.78-.15,0Zm-7.83,15.4,6.46-3.79a17,17,0,0,1-9,7.7,7.22,7.22,0,0,0-3,3C8.41,138,13.42,136.36,13.42,136.36Z" transform="translate(-4.89 -18.72)"/><path class="cls-6" d="M53.91,198.52c-5.09,9.51-16.86,7.95-16.86,7.95-7.62.45-6.37,6.73-6.37,6.73l.59,2.28a7,7,0,0,0-.54,3.43l.68,3.48c1.65-8,8.3-7.53,8.3-7.53l7.73-1.33L39.62,234.6l-5.69-2.24a11.52,11.52,0,0,0-1.66-.8c-4.31-1.57-8.46,1.74-9.58,4.79s1.48,6.81,5.79,8.39,9.54-.22,10.76-3.2h0l2.44-6.34-.15,0ZM40.56,209.47,48,208.6A17,17,0,0,1,36.68,212a7.23,7.23,0,0,0-4,1.5C35.31,209,40.56,209.47,40.56,209.47Z" transform="translate(-4.89 -18.72)"/><path class="cls-6" d="M39.81,18.72c-5.09,9.52-16.86,8-16.86,8-7.61.44-6.36,6.72-6.36,6.72l.58,2.29a7,7,0,0,0-.54,3.43l.68,3.47c1.65-8,8.31-7.53,8.31-7.53l7.73-1.32L25.52,54.81l-5.69-2.24a9.39,9.39,0,0,0-1.66-.8c-4.31-1.58-8.46,1.73-9.57,4.79s1.47,6.81,5.78,8.38,9.55-.22,10.76-3.2h0l2.44-6.34-.15,0Zm-13.35,11,7.44-.87a17.06,17.06,0,0,1-11.32,3.43,7.18,7.18,0,0,0-3.94,1.51C21.21,29.15,26.46,29.68,26.46,29.68Z" transform="translate(-4.89 -18.72)"/><path class="cls-6" d="M103,137.84l2.4.95a4.09,4.09,0,0,0,.7.33,3.29,3.29,0,0,0,4-2c.46-1.28-.62-2.85-2.42-3.51s-4,.1-4.5,1.34h0l-1,2.65-3.24,9.07-13-4.78-.28.77,13.05,4.78-.4,1.12-13.1-4.8,0-.14L89.34,133l.07-.08,2.4.94a3.68,3.68,0,0,0,.69.34,3.3,3.3,0,0,0,4-2c.46-1.27-.62-2.84-2.42-3.5s-4,.09-4.5,1.34h0l-1,2.66-4.23,10.84h0l-.14.35-1.56,4L97,153.09l5.93-15.17Z" transform="translate(-4.89 -18.72)"/><path class="cls-6" d="M92.39,187.84l2.4.94a4.12,4.12,0,0,0,.7.34,3.3,3.3,0,0,0,4-2c.46-1.27-.62-2.84-2.42-3.5s-4,.09-4.5,1.33h0l-1,2.66-3.24,9.06-13-4.78-.28.77L88,197.43l-.4,1.12-13.1-4.8,0-.13L78.76,183l.07-.08,2.4.95a4.37,4.37,0,0,0,.69.33,3.3,3.3,0,0,0,4-2c.46-1.28-.62-2.85-2.42-3.51s-4,.09-4.5,1.34h0l-1,2.65-4.23,10.84h0l-.14.35-1.56,4,14.33,5.25,5.93-15.16Z" transform="translate(-4.89 -18.72)"/><path class="cls-6" d="M52.25,174l2.4.94a3.49,3.49,0,0,0,.7.34,3.3,3.3,0,0,0,4-2c.46-1.28-.62-2.85-2.42-3.51s-4,.09-4.5,1.34h0l-1,2.65-3.24,9.06-13-4.77-.28.76,13,4.78-.4,1.12-13.1-4.79.05-.14,4.17-10.67.07-.08,2.4,1a4.37,4.37,0,0,0,.69.33,3.3,3.3,0,0,0,4-2c.46-1.28-.62-2.85-2.42-3.51s-4,.09-4.5,1.34h0l-1,2.65-4.23,10.84h0l-.14.35-1.56,4,14.33,5.25,5.93-15.16Z" transform="translate(-4.89 -18.72)"/><path class="cls-6" d="M66.61,264.09,69,265a3.77,3.77,0,0,0,.7.34,3.3,3.3,0,0,0,4-2c.47-1.28-.62-2.85-2.42-3.51s-4,.09-4.5,1.34h0l-1,2.65-3.23,9.06-13-4.77-.28.76,13,4.78-.4,1.12L48.76,270l.05-.14L53,259.2l.07-.08,2.4.95a4.09,4.09,0,0,0,.7.33,3.29,3.29,0,0,0,4-2c.46-1.28-.62-2.85-2.42-3.51s-4,.1-4.5,1.34h0l-1,2.65L48,269.72h0l-.14.35-1.56,4,14.33,5.25,5.93-15.16Z" transform="translate(-4.89 -18.72)"/><path class="cls-6" d="M202.23,293.69h0l-4.89.08-20.22.84,2.67-5.78a6,6,0,0,1,7-4.52l-2.23-1.42s-4-2.25-6,2.87c0,0-1.58,8.41-9.23,9.77l28-.32.18.05,0,4.45a7.37,7.37,0,0,0-.09,1.33c.11,3.3,3.44,5.18,5.78,5.09s4.15-2.82,4-6.12S204.55,293.7,202.23,293.69Z" transform="translate(-4.89 -18.72)"/><path class="cls-6" d="M202.23,293.69h0l-4.89.08-20.22.84,2.67-5.78a6,6,0,0,1,7-4.52l-2.23-1.42s-4-2.25-6,2.87c0,0-1.58,8.41-9.23,9.77l28-.32.18.05,0,4.45a7.37,7.37,0,0,0-.09,1.33c.11,3.3,3.44,5.18,5.78,5.09s4.15-2.82,4-6.12S204.55,293.7,202.23,293.69Z" transform="translate(-4.89 -18.72)"/><path class="cls-6" d="M202.23,293.69h0l-4.89.08-20.22.84,2.67-5.78a6,6,0,0,1,7-4.52l-2.23-1.42s-4-2.25-6,2.87c0,0-1.58,8.41-9.23,9.77l28-.32.18.05,0,4.45a7.37,7.37,0,0,0-.09,1.33c.11,3.3,3.44,5.18,5.78,5.09s4.15-2.82,4-6.12S204.55,293.7,202.23,293.69Z" transform="translate(-4.89 -18.72)"/><path class="cls-6" d="M202.23,293.69h0l-4.89.08-20.22.84,2.67-5.78a6,6,0,0,1,7-4.52l-2.23-1.42s-4-2.25-6,2.87c0,0-1.58,8.41-9.23,9.77l28-.32.18.05,0,4.45a7.37,7.37,0,0,0-.09,1.33c.11,3.3,3.44,5.18,5.78,5.09s4.15-2.82,4-6.12S204.55,293.7,202.23,293.69Z" transform="translate(-4.89 -18.72)"/><path class="cls-6" d="M148.54,180.5h0l-4.89.09-20.22.83,2.68-5.78a6,6,0,0,1,7-4.51l-2.23-1.42s-4-2.25-6,2.86c0,0-1.59,8.41-9.24,9.78l28-.33.17.06,0,4.45a6.46,6.46,0,0,0-.08,1.32c.11,3.3,3.44,5.18,5.78,5.1s4.14-2.83,4-6.13S150.86,180.5,148.54,180.5Z" transform="translate(-4.89 -18.72)"/><path class="cls-6" d="M194.33,156.2h0l-4.89.08-20.23.84,2.68-5.78a6,6,0,0,1,7-4.52l-2.23-1.42s-4-2.25-6,2.86c0,0-1.58,8.41-9.24,9.78l28-.33.17.06,0,4.45a8.36,8.36,0,0,0-.08,1.32c.11,3.3,3.44,5.18,5.78,5.1s4.14-2.82,4-6.12S196.64,156.21,194.33,156.2Z" transform="translate(-4.89 -18.72)"/><path class="cls-6" d="M202.23,293.69h0l-4.89.08-20.22.84,2.67-5.78a6,6,0,0,1,7-4.52l-2.23-1.42s-4-2.25-6,2.87c0,0-1.58,8.41-9.23,9.77l28-.32.18.05,0,4.45a7.37,7.37,0,0,0-.09,1.33c.11,3.3,3.44,5.18,5.78,5.09s4.15-2.82,4-6.12S204.55,293.7,202.23,293.69Z" transform="translate(-4.89 -18.72)"/><path class="cls-6" d="M170.8,38.77h0l-4.89.09-20.22.83,2.67-5.78a6,6,0,0,1,7-4.52L153.13,28s-4-2.26-6,2.86c0,0-1.59,8.41-9.24,9.78l28-.33.17.06,0,4.44a6.56,6.56,0,0,0-.08,1.33c.1,3.3,3.44,5.18,5.77,5.1s4.15-2.83,4-6.13S173.12,38.78,170.8,38.77Z" transform="translate(-4.89 -18.72)"/><path class="cls-6" d="M148.17,101.27c-10.29,3.26-17.63-6.08-17.63-6.08-5.76-5-9.25.37-9.25.37l-1.18,2a7,7,0,0,0-2.78,2.08l-1.94,3c6.77-4.57,11.2.41,11.2.41l6.46,4.45-20.31,9.62-2.51-5.58a10.19,10.19,0,0,0-.63-1.73c-2-4.14-7.27-4.67-10.2-3.26s-3.69,5.9-1.71,10,7,6.51,9.93,5.22h0l6.17-2.84-.07-.13ZM131,99.79l5.93,4.57a17.06,17.06,0,0,1-10.5-5.44,7.13,7.13,0,0,0-3.87-1.68C127.57,95.75,131,99.79,131,99.79Z" transform="translate(-4.89 -18.72)"/><path class="cls-6" d="M158.79,280.2c-10.73-1.15-13.7-12.66-13.7-12.66-3.26-6.89-8.61-3.38-8.61-3.38l-1.9,1.4a7.07,7.07,0,0,0-3.38.79l-3,1.93c8-1.47,10.09,4.88,10.09,4.88l4.12,6.67-22.46.64-.06-6.11a9.49,9.49,0,0,0,.12-1.84c-.15-4.59-4.78-7.2-8-7.09s-5.75,3.93-5.6,8.51,3.78,8.77,7,8.78h0l6.79-.12,0-.15Zm-15.16-8.27,3.6,6.56a17,17,0,0,1-7.43-9.2,7.22,7.22,0,0,0-2.88-3.09C142.15,266.86,143.63,271.93,143.63,271.93Z" transform="translate(-4.89 -18.72)"/><path class="cls-6" d="M283.22,207.52c-10.73-1.15-13.7-12.65-13.7-12.65-3.26-6.89-8.61-3.38-8.61-3.38l-1.9,1.39a7.07,7.07,0,0,0-3.38.79l-3,1.94c8-1.48,10.09,4.87,10.09,4.87l4.13,6.67-22.47.65-.06-6.12a9.49,9.49,0,0,0,.12-1.84c-.15-4.59-4.78-7.2-8-7.08s-5.76,3.92-5.61,8.5,3.78,8.77,7,8.78h0l6.79-.12,0-.15Zm-15.16-8.27,3.6,6.57a17.08,17.08,0,0,1-7.43-9.21,7.26,7.26,0,0,0-2.87-3.09C266.58,194.18,268.06,199.25,268.06,199.25Z" transform="translate(-4.89 -18.72)"/><path class="cls-6" d="M225.12,203.58c-10.72-1.16-13.69-12.66-13.69-12.66-3.26-6.89-8.62-3.38-8.62-3.38l-1.9,1.4a6.87,6.87,0,0,0-3.38.79l-3,1.93c8-1.47,10.1,4.88,10.1,4.88l4.12,6.67-22.47.64-.05-6.12a11.23,11.23,0,0,0,.12-1.84c-.16-4.58-4.78-7.19-8-7.08s-5.76,3.92-5.61,8.51,3.79,8.77,7,8.77h0l6.79-.12v-.15ZM210,195.3l3.59,6.57a17,17,0,0,1-7.43-9.2,7.16,7.16,0,0,0-2.87-3.1C208.48,190.24,210,195.3,210,195.3Z" transform="translate(-4.89 -18.72)"/><path class="cls-6" d="M210.33,112.45C199.6,111.3,196.64,99.8,196.64,99.8c-3.27-6.89-8.62-3.38-8.62-3.38l-1.9,1.4a7,7,0,0,0-3.38.78l-3,1.94c8-1.47,10.09,4.87,10.09,4.87l4.13,6.67-22.47.65-.05-6.12a10.33,10.33,0,0,0,.11-1.84c-.15-4.59-4.77-7.19-8-7.08s-5.76,3.92-5.61,8.51,3.78,8.76,7,8.77h0l6.79-.11,0-.16Zm-15.15-8.27,3.59,6.57a17.08,17.08,0,0,1-7.43-9.2,7.17,7.17,0,0,0-2.87-3.1C193.69,99.12,195.18,104.18,195.18,104.18Z" transform="translate(-4.89 -18.72)"/><path class="cls-6" d="M264.28,330.7C253.55,329.54,250.59,318,250.59,318c-3.27-6.89-8.62-3.38-8.62-3.38l-1.9,1.4a6.87,6.87,0,0,0-3.38.79l-3,1.93c8-1.47,10.09,4.88,10.09,4.88l4.13,6.67-22.47.64-.05-6.12a10.28,10.28,0,0,0,.11-1.84c-.15-4.58-4.77-7.19-8-7.08s-5.76,3.92-5.61,8.51,3.78,8.77,7,8.77h0l6.79-.12,0-.16Zm-15.15-8.28,3.59,6.57a17,17,0,0,1-7.43-9.2,7.11,7.11,0,0,0-2.87-3.1C247.64,317.36,249.13,322.42,249.13,322.42Z" transform="translate(-4.89 -18.72)"/><path class="cls-6" d="M337,378.14c-10.73-1.16-13.69-12.66-13.69-12.66-3.26-6.89-8.62-3.38-8.62-3.38l-1.9,1.4a7,7,0,0,0-3.38.78l-3,1.94c8-1.47,10.09,4.88,10.09,4.88l4.13,6.67-22.47.64-.05-6.12a11.3,11.3,0,0,0,.12-1.84c-.16-4.58-4.78-7.19-8-7.08s-5.76,3.92-5.61,8.51,3.78,8.76,7,8.77h0l6.79-.12,0-.16Zm-15.15-8.28,3.59,6.57a17,17,0,0,1-7.43-9.2,7.11,7.11,0,0,0-2.87-3.1C320.36,364.8,321.85,369.86,321.85,369.86Z" transform="translate(-4.89 -18.72)"/><path class="cls-6" d="M161.24,233.6c-10.73-1.16-13.7-12.66-13.7-12.66-3.26-6.89-8.61-3.38-8.61-3.38L137,219a6.84,6.84,0,0,0-3.38.79l-3,1.93c8-1.47,10.09,4.88,10.09,4.88l4.12,6.67-22.46.64-.06-6.12a9.39,9.39,0,0,0,.12-1.84c-.15-4.58-4.78-7.19-8-7.08s-5.75,3.92-5.6,8.51,3.78,8.77,7,8.77h0l6.79-.12,0-.15Zm-15.16-8.27,3.6,6.56a17,17,0,0,1-7.43-9.2,7.24,7.24,0,0,0-2.88-3.1C144.6,220.26,146.08,225.33,146.08,225.33Z" transform="translate(-4.89 -18.72)"/><path class="cls-6" d="M280.05,284.79c-10.73-1.15-13.7-12.65-13.7-12.65-3.26-6.89-8.62-3.38-8.62-3.38l-1.89,1.4a7,7,0,0,0-3.39.78l-3,1.94c8-1.47,10.09,4.88,10.09,4.88l4.12,6.67-22.46.64-.06-6.12a9.44,9.44,0,0,0,.12-1.84c-.15-4.58-4.78-7.19-8-7.08s-5.75,3.92-5.6,8.51,3.78,8.76,7,8.77h0l6.8-.11,0-.16Zm-15.16-8.27,3.6,6.57a17,17,0,0,1-7.43-9.2,7.19,7.19,0,0,0-2.88-3.1C263.41,271.46,264.89,276.52,264.89,276.52Z" transform="translate(-4.89 -18.72)"/><path class="cls-6" d="M323.72,173.6C313,172.45,310,161,310,161c-3.27-6.89-8.62-3.38-8.62-3.38l-1.9,1.39a7.09,7.09,0,0,0-3.38.79l-3,1.94c8-1.48,10.09,4.87,10.09,4.87l4.13,6.67-22.47.64-.05-6.11a10.33,10.33,0,0,0,.11-1.84c-.15-4.59-4.77-7.2-8-7.08s-5.76,3.92-5.61,8.5,3.78,8.77,7,8.78h0l6.79-.12,0-.15Zm-15.15-8.27,3.59,6.57a17.08,17.08,0,0,1-7.43-9.21,7.14,7.14,0,0,0-2.87-3.09C307.08,160.26,308.57,165.33,308.57,165.33Z" transform="translate(-4.89 -18.72)"/><path class="cls-6" d="M241.86,62.93c-10.72-1.15-13.69-12.66-13.69-12.66-3.26-6.89-8.62-3.38-8.62-3.38l-1.9,1.4a7.12,7.12,0,0,0-3.38.79l-3,1.93c8-1.47,10.1,4.88,10.1,4.88l4.12,6.67-22.47.64L203,57.09a11.38,11.38,0,0,0,.12-1.84c-.16-4.59-4.78-7.2-8-7.09s-5.76,3.93-5.61,8.51,3.79,8.77,7,8.77h0l6.79-.12v-.15Zm-15.15-8.27,3.59,6.56a17,17,0,0,1-7.43-9.2A7.14,7.14,0,0,0,220,48.93C225.22,49.59,226.71,54.66,226.71,54.66Z" transform="translate(-4.89 -18.72)"/><path class="cls-6" d="M171.09,321.55l0,2.59a3.94,3.94,0,0,0-.05.77,3.29,3.29,0,0,0,3.35,3c1.36-.05,2.41-1.64,2.35-3.56s-1.58-3.67-2.93-3.67h0l-2.84.05-9.62.4-.46-13.89-.81,0,.46,13.89-1.19.05-.46-13.95h.14l11.45-.13.1,0,0,2.58a4,4,0,0,0,0,.77,3.31,3.31,0,0,0,3.36,3c1.35-.05,2.4-1.64,2.34-3.56s-1.58-3.67-2.93-3.67h0l-2.84.05-11.63.14h-.38l-4.3.05.5,15.26,16.28-.19Z" transform="translate(-4.89 -18.72)"/><path class="cls-6" d="M253,243.44l0,2.59a3.94,3.94,0,0,0-.05.77,3.29,3.29,0,0,0,3.35,3c1.36,0,2.41-1.64,2.35-3.56s-1.58-3.67-2.93-3.67h0l-2.84.05-9.62.4-.46-13.89-.81,0L242.5,243l-1.19.05-.46-13.95H241l11.45-.13.1,0,0,2.58a4,4,0,0,0,0,.77,3.29,3.29,0,0,0,3.35,3c1.36,0,2.41-1.64,2.35-3.55s-1.58-3.67-2.93-3.67h0l-2.84,0-11.63.15h-.38l-4.3.05.5,15.26,16.28-.19Z" transform="translate(-4.89 -18.72)"/><path class="cls-6" d="M285,135.19l0,2.59a3.94,3.94,0,0,0,0,.77,3.29,3.29,0,0,0,3.35,3c1.36,0,2.41-1.64,2.35-3.56s-1.58-3.67-2.93-3.67h0l-2.84.05-9.62.4-.46-13.89-.81,0,.46,13.89-1.19.05-.47-14h.15l11.45-.13.1,0,0,2.58a4,4,0,0,0,0,.77,3.29,3.29,0,0,0,3.35,3c1.36,0,2.41-1.64,2.35-3.55s-1.58-3.67-2.93-3.67h0l-2.84.05-11.63.14h-.38l-4.31,0,.51,15.26,16.28-.19Z" transform="translate(-4.89 -18.72)"/><path class="cls-6" d="M234.66,144.12l0,2.58a4,4,0,0,0-.05.77,3.31,3.31,0,0,0,3.36,3c1.35-.05,2.4-1.65,2.34-3.56s-1.58-3.67-2.92-3.67h0l-2.84,0-9.61.39-.46-13.88-.82,0,.46,13.9-1.19,0-.46-13.94h.15l11.45-.14.1,0,0,2.58a3.94,3.94,0,0,0,0,.77,3.3,3.3,0,0,0,3.36,3c1.36-.05,2.41-1.64,2.34-3.56s-1.58-3.66-2.92-3.67h0l-2.84,0-11.64.14h-.38l-4.3.05.5,15.26,16.28-.19Z" transform="translate(-4.89 -18.72)"/><path class="cls-6" d="M302.85,260.75l0,2.58a5.06,5.06,0,0,0-.05.77,3.3,3.3,0,0,0,3.36,3c1.36,0,2.41-1.64,2.34-3.55s-1.58-3.67-2.92-3.67h0l-2.84.05-9.62.4-.46-13.88-.82,0,.46,13.89-1.19.05-.46-13.94h.15l11.45-.14.1,0,0,2.58a4.9,4.9,0,0,0-.05.77,3.3,3.3,0,0,0,3.36,3c1.36,0,2.41-1.64,2.35-3.56s-1.59-3.66-2.93-3.67h0l-2.84,0-11.63.14h-.38l-4.31.05.51,15.26,16.28-.19Z" transform="translate(-4.89 -18.72)"/><path class="cls-6" d="M232.43,101.72l0,2.59a3.94,3.94,0,0,0-.05.77,3.3,3.3,0,0,0,3.36,3c1.35-.05,2.4-1.64,2.34-3.56s-1.58-3.67-2.93-3.67h0l-2.84,0-9.61.4-.46-13.89-.82,0,.46,13.89-1.19,0-.46-14h.15l11.44-.13.11,0,0,2.58a4,4,0,0,0,0,.77,3.31,3.31,0,0,0,3.36,3c1.35,0,2.4-1.65,2.34-3.56s-1.58-3.67-2.93-3.67h0l-2.84,0-11.63.15h-.38l-4.3.05.5,15.26,16.28-.19Z" transform="translate(-4.89 -18.72)"/><path class="cls-6" d="M189.72,262.37l0,2.58a5,5,0,0,0-.05.77,3.3,3.3,0,0,0,3.36,3c1.36,0,2.41-1.64,2.35-3.55s-1.59-3.67-2.93-3.67h0l-2.84.05-9.62.4L179.55,248l-.82,0,.46,13.89L178,262,177.54,248h.15l11.45-.14.1,0,0,2.58a3.94,3.94,0,0,0,0,.77,3.28,3.28,0,0,0,3.35,3c1.36-.05,2.41-1.64,2.35-3.56S193.34,247,192,247h0l-2.84,0-11.63.14h-.38l-4.31.06.51,15.25,16.28-.18Z" transform="translate(-4.89 -18.72)"/><path class="cls-6" d="M290,328.17l0,2.58a4.9,4.9,0,0,0-.05.77,3.3,3.3,0,0,0,3.36,3c1.36-.05,2.41-1.64,2.34-3.56s-1.58-3.66-2.92-3.67h0l-2.84.05-9.62.4-.46-13.89-.82,0,.46,13.89-1.18,0-.47-13.95h.15l11.45-.13.1,0,0,2.59a4.85,4.85,0,0,0-.05.76,3.31,3.31,0,0,0,3.36,3c1.36-.05,2.41-1.64,2.35-3.56s-1.59-3.67-2.93-3.67h0l-2.84.05-11.64.14h-.37l-4.31.05.51,15.26,16.28-.19Z" transform="translate(-4.89 -18.72)"/><path class="cls-6" d="M154.3,148.8l0,2.58a5,5,0,0,0,0,.77,3.3,3.3,0,0,0,3.36,3c1.36-.05,2.41-1.64,2.35-3.56s-1.59-3.66-2.93-3.67h0l-2.84.05-9.62.4-.46-13.89-.82,0,.47,13.89-1.19,0-.47-13.94h.15l11.45-.13.1,0,0,2.59a3.94,3.94,0,0,0,0,.77,3.29,3.29,0,0,0,3.35,3c1.36-.05,2.41-1.64,2.35-3.56s-1.58-3.67-2.93-3.67h0l-2.84.05-11.63.14h-.38l-4.31.06.51,15.25,16.28-.19Z" transform="translate(-4.89 -18.72)"/></svg>