<svg id="Layer_1" data-name="Layer 1" xmlns="http://www.w3.org/2000/svg" xmlns:xlink="http://www.w3.org/1999/xlink" viewBox="0 0 950.22 706.57"><defs><style>.cls-1{fill:none;}.cls-2{clip-path:url(#clip-path);}.cls-3{fill:#e6e6e6;}.cls-4{fill:#ff6584;}.cls-5{fill:#3f3d56;}.cls-6{fill:#4965c8;}.cls-7{fill:#fff;}</style><clipPath id="clip-path" transform="translate(-69.59 -22.02)"><rect class="cls-1" x="548.81" y="314.59" width="472" height="411"/></clipPath></defs><g class="cls-2"><path class="cls-3" d="M1019.81,723.49l-337.88,5.1L547.81,704.81H757.19Z" transform="translate(-69.59 -22.02)"/><path class="cls-4" d="M936.89,425.71a54.06,54.06,0,1,0-54-54.06A54,54,0,0,0,936.89,425.71Z" transform="translate(-69.59 -22.02)"/><path class="cls-5" d="M643.42,707.63s.79-16.57,17-14.64Z" transform="translate(-69.59 -22.02)"/><path class="cls-6" d="M638.84,691.87a8.12,8.12,0,1,0-8.11-8.12A8.13,8.13,0,0,0,638.84,691.87Z" transform="translate(-69.59 -22.02)"/><path class="cls-5" d="M639.81,697.41h-2.29v16h2.29Z" transform="translate(-69.59 -22.02)"/><path class="cls-5" d="M910.56,710.46s.79-16.57,17-14.64Z" transform="translate(-69.59 -22.02)"/><path class="cls-6" d="M906,694.7a8.12,8.12,0,1,0-8.11-8.12A8.12,8.12,0,0,0,906,694.7Z" transform="translate(-69.59 -22.02)"/><path class="cls-5" d="M907,700.25h-2.29v16H907Z" transform="translate(-69.59 -22.02)"/><path class="cls-5" d="M949.61,713.3s.79-16.58,17-14.65Z" transform="translate(-69.59 -22.02)"/><path class="cls-6" d="M945,697.53a8.12,8.12,0,1,0-8.11-8.12A8.12,8.12,0,0,0,945,697.53Z" transform="translate(-69.59 -22.02)"/><path class="cls-5" d="M946,703.08h-2.29v16H946Z" transform="translate(-69.59 -22.02)"/><path class="cls-5" d="M707.38,699.71s.79-16.57,17-14.65Z" transform="translate(-69.59 -22.02)"/><path class="cls-6" d="M702.8,683.94a8.12,8.12,0,1,0-8.11-8.11A8.11,8.11,0,0,0,702.8,683.94Z" transform="translate(-69.59 -22.02)"/><path class="cls-5" d="M703.77,689.49h-2.29v16h2.29Z" transform="translate(-69.59 -22.02)"/><path class="cls-5" d="M586.83,702.54s.79-16.57,17-14.65Z" transform="translate(-69.59 -22.02)"/><path class="cls-6" d="M582.25,686.77a8.12,8.12,0,1,0-8.11-8.11A8.11,8.11,0,0,0,582.25,686.77Z" transform="translate(-69.59 -22.02)"/><path class="cls-5" d="M583.22,692.32h-2.29v16h2.29Z" transform="translate(-69.59 -22.02)"/><path class="cls-5" d="M783,673.74a88.4,88.4,0,1,0-88.38-88.4A88.39,88.39,0,0,0,783,673.74Z" transform="translate(-69.59 -22.02)"/><path class="cls-7" d="M727.31,592.44a23.39,23.39,0,0,1,35.9,0,26,26,0,1,0-35.9,0Z" transform="translate(-69.59 -22.02)"/><path class="cls-7" d="M797.5,592.44a23.38,23.38,0,0,1,35.89,0,26,26,0,1,0-35.89,0Z" transform="translate(-69.59 -22.02)"/><path class="cls-5" d="M736.4,573.72a8.95,8.95,0,1,0-8.95-8.94A8.94,8.94,0,0,0,736.4,573.72Z" transform="translate(-69.59 -22.02)"/><path class="cls-5" d="M806.58,573.72a8.95,8.95,0,1,0-9-8.94A8.94,8.94,0,0,0,806.58,573.72Z" transform="translate(-69.59 -22.02)"/><path class="cls-4" d="M719.27,617.84a10.4,10.4,0,1,0-10.4-10.4A10.4,10.4,0,0,0,719.27,617.84Z" transform="translate(-69.59 -22.02)"/><path class="cls-4" d="M838.84,617.84a10.4,10.4,0,1,0-10.4-10.4A10.4,10.4,0,0,0,838.84,617.84Z" transform="translate(-69.59 -22.02)"/><path class="cls-4" d="M779.05,586.64l-7.79,33.8,13-13Z" transform="translate(-69.59 -22.02)"/><path class="cls-5" d="M819.12,716.65l-8.85-7.44.21,7.44h-2.75l-.22-7.86-12,7.86h-5l16.87-11.09-.66-23.29-.48-17.59,2.74-.07.49,17.66.66,23.26,13.23,11.12Z" transform="translate(-69.59 -22.02)"/><path class="cls-5" d="M777.53,716.65l-8.85-7.44.2,7.44h-2.74l-.22-7.86L754,716.65h-5l16.86-11.09-.65-23.29-.49-17.59,2.75-.07.5,17.66.64,23.26,13.24,11.12Z" transform="translate(-69.59 -22.02)"/><path class="cls-5" d="M784.25,490.44c-2.42,0-4.56,1.88-6,4.78-1.26-4.35-3.91-7.38-7-7.38a4.62,4.62,0,0,0-.63.11c-1.19-4.65-4-7.91-7.17-7.91-4.31,0-7.8,5.82-7.8,13s3.49,13,7.8,13a6.17,6.17,0,0,0,.62-.1c1.19,4.64,3.95,7.9,7.18,7.9,2.42,0,4.56-1.88,6-4.78,1.26,4.35,3.91,7.38,7,7.38,4.31,0,7.8-5.82,7.8-13S788.56,490.44,784.25,490.44Z" transform="translate(-69.59 -22.02)"/><path class="cls-6" d="M700,618.84a26,26,0,0,1-26-26v-13a26,26,0,0,1,26-26Z" transform="translate(-69.59 -22.02)"/><path class="cls-6" d="M865.91,553.84a26,26,0,0,1,26,26v13a26,26,0,0,1-26,26Z" transform="translate(-69.59 -22.02)"/><path class="cls-6" d="M879.53,581.89H875.4a94.86,94.86,0,1,0-189.71,0h-4.12a99,99,0,1,1,198,0Z" transform="translate(-69.59 -22.02)"/><path class="cls-6" d="M639,502.38h0l-1.94-.8-8.18-3.46L626,496.87l-.22.57-3.94,9.94,11.08,4.69.06,0-.75,1.76a4.09,4.09,0,0,0-.26.51,2.46,2.46,0,0,0,1.4,3c.93.37,2.11-.4,2.64-1.72s0-3-.9-3.36h0l-1.94-.81-6.63-2.58,3.79-9.56-.56-.23L626,508.71l-.82-.32,3.8-9.6.1,0,7.8,3.3,0,.05-.74,1.76a3.06,3.06,0,0,0-.26.51,2.44,2.44,0,0,0,1.4,3c.93.36,2.11-.41,2.63-1.73S639.92,502.78,639,502.38Z" transform="translate(-69.59 -22.02)"/><path class="cls-6" d="M677.36,526.78c-4-2.3-3.22-7.34-3.22-7.34-.1-3.28-2.81-2.82-2.81-2.82l-1,.23a3,3,0,0,0-1.47-.28l-1.5.26c3.42.8,3.14,3.66,3.14,3.66l.47,3.34-8.94-3.61,1-2.43a4.63,4.63,0,0,0,.36-.7,3.39,3.39,0,0,0-2-4.17c-1.29-.52-2.93.55-3.66,2.39s0,4.11,1.25,4.66h0l2.69,1.12,0-.06Zm-4.54-5.87.28,3.2a7.37,7.37,0,0,1-1.34-4.9,3.05,3.05,0,0,0-.6-1.71,3.65,3.65,0,0,1,1.31,1.47,3.73,3.73,0,0,1,.35,1.94Z" transform="translate(-69.59 -22.02)"/><path class="cls-6" d="M588.12,484.5h0l-2.69-1.12L574.18,479l2.84-2.52a3.59,3.59,0,0,1,4.9-.81l-.88-1.31s-1.66-2.19-4,.13c0,0-2.87,4.23-7.38,3.15l15.39,6.52.08.07-1,2.44a4.73,4.73,0,0,0-.36.71,3.4,3.4,0,0,0,1.94,4.17c1.3.52,2.94-.55,3.67-2.39S589.38,485.05,588.12,484.5Z" transform="translate(-69.59 -22.02)"/><path class="cls-6" d="M650.3,465.19l-1,2.44a4.3,4.3,0,0,0-.36.71,3.38,3.38,0,0,0,1.94,4.17c1.3.51,2.94-.56,3.66-2.39s0-4.11-1.24-4.67h0l-2.69-1.12-9.21-3.58,5.26-13.28-.78-.31-5.26,13.29-1.14-.44,5.28-13.35.14.06,10.82,4.58.08.08-1,2.44a4,4,0,0,0-.37.71,3.4,3.4,0,0,0,1.95,4.17c1.29.51,2.93-.56,3.66-2.39s0-4.11-1.25-4.66h0L656,450.52l-11-4.65h0l-.35-.15L640.61,444l-5.78,14.6,15.39,6.51Z" transform="translate(-69.59 -22.02)"/><path class="cls-6" d="M606.54,408.43h0l-4.64-1.93L582.54,399l4.89-4.35a6.17,6.17,0,0,1,8.44-1.38L594.35,391s-2.85-3.77-6.84.22c0,0-4.94,7.28-12.7,5.43l26.49,11.21.14.12-1.78,4.21a7.42,7.42,0,0,0-.63,1.22c-1.25,3.16,1.11,6.3,3.35,7.18s5-1,6.3-4.11S608.71,409.38,606.54,408.43Z" transform="translate(-69.59 -22.02)"/><path class="cls-6" d="M621.75,467.67c-9.61-5.5-7.69-17.57-7.69-17.57-.24-7.84-6.72-6.73-6.72-6.73l-2.35.54a7.19,7.19,0,0,0-3.51-.65l-3.58.61c8.16,1.91,7.49,8.74,7.49,8.74l1.14,8L585.15,452l2.45-5.79a10.79,10.79,0,0,0,.87-1.69c1.73-4.39-1.55-8.75-4.65-10s-7,1.34-8.76,5.72,0,9.82,3,11.15h0l6.44,2.68,0-.16Zm-10.86-14,.69,7.67a17.58,17.58,0,0,1-3.21-11.74,7.43,7.43,0,0,0-1.44-4.1c4.64,2.78,4,8.17,4,8.17Z" transform="translate(-69.59 -22.02)"/></g><path class="cls-6" d="M195,316.1h0l-5.81.11-24,1,3.18-6.86a7.15,7.15,0,0,1,8.31-5.37L174,303.28s-4.77-2.68-7.16,3.39c0,0-1.88,10-11,11.61l33.27-.38.21.06,0,5.28a8.4,8.4,0,0,0-.11,1.58c.13,3.92,4.09,6.15,6.87,6.05s4.92-3.35,4.79-7.27S197.77,316.1,195,316.1Z" transform="translate(-69.59 -22.02)"/><path class="cls-6" d="M195,316.1h0l-5.81.11-24,1,3.18-6.86a7.15,7.15,0,0,1,8.31-5.37L174,303.28s-4.77-2.68-7.16,3.39c0,0-1.88,10-11,11.61l33.27-.38.21.06,0,5.28a8.4,8.4,0,0,0-.11,1.58c.13,3.92,4.09,6.15,6.87,6.05s4.92-3.35,4.79-7.27S197.77,316.1,195,316.1Z" transform="translate(-69.59 -22.02)"/><path class="cls-6" d="M195,316.1h0l-5.81.11-24,1,3.18-6.86a7.15,7.15,0,0,1,8.31-5.37L174,303.28s-4.77-2.68-7.16,3.39c0,0-1.88,10-11,11.61l33.27-.38.21.06,0,5.28a8.4,8.4,0,0,0-.11,1.58c.13,3.92,4.09,6.15,6.87,6.05s4.92-3.35,4.79-7.27S197.77,316.1,195,316.1Z" transform="translate(-69.59 -22.02)"/><path class="cls-6" d="M195,316.1h0l-5.81.11-24,1,3.18-6.86a7.15,7.15,0,0,1,8.31-5.37L174,303.28s-4.77-2.68-7.16,3.39c0,0-1.88,10-11,11.61l33.27-.38.21.06,0,5.28a8.4,8.4,0,0,0-.11,1.58c.13,3.92,4.09,6.15,6.87,6.05s4.92-3.35,4.79-7.27S197.77,316.1,195,316.1Z" transform="translate(-69.59 -22.02)"/><path class="cls-6" d="M131.27,181.7h0l-5.8.1-24,1,3.17-6.86a7.15,7.15,0,0,1,8.32-5.36l-2.65-1.69s-4.77-2.67-7.16,3.4c0,0-1.88,10-11,11.61l33.27-.39.21.07,0,5.28a9.2,9.2,0,0,0-.1,1.57c.13,3.92,4.09,6.15,6.86,6.05s4.93-3.35,4.8-7.27S134,181.71,131.27,181.7Z" transform="translate(-69.59 -22.02)"/><path class="cls-6" d="M185.63,152.86h0l-5.8.1-24,1,3.18-6.86a7.15,7.15,0,0,1,8.31-5.36L164.66,140s-4.77-2.67-7.16,3.4c0,0-1.88,10-11,11.61l33.28-.39.2.07.05,5.28a9.2,9.2,0,0,0-.1,1.57c.13,3.92,4.08,6.15,6.86,6.06s4.92-3.36,4.79-7.27S188.38,152.86,185.63,152.86Z" transform="translate(-69.59 -22.02)"/><path class="cls-6" d="M195,316.1h0l-5.81.11-24,1,3.18-6.86a7.15,7.15,0,0,1,8.31-5.37L174,303.28s-4.77-2.68-7.16,3.39c0,0-1.88,10-11,11.61l33.27-.38.21.06,0,5.28a8.4,8.4,0,0,0-.11,1.58c.13,3.92,4.09,6.15,6.87,6.05s4.92-3.35,4.79-7.27S197.77,316.1,195,316.1Z" transform="translate(-69.59 -22.02)"/><path class="cls-6" d="M158.89,38.37h0l-5.81.1-24,1,3.18-6.86a7.16,7.16,0,0,1,8.31-5.37l-2.65-1.68s-4.76-2.68-7.15,3.4c0,0-1.89,10-11,11.61l33.27-.39.21.07,0,5.28a8.23,8.23,0,0,0-.1,1.57c.13,3.92,4.08,6.15,6.86,6s4.92-3.35,4.79-7.27S161.64,38.38,158.89,38.37Z" transform="translate(-69.59 -22.02)"/><path class="cls-6" d="M516.18,338.27h0l-5.8.1-24,1,3.18-6.86a7.15,7.15,0,0,1,8.31-5.36l-2.65-1.68s-4.76-2.68-7.15,3.39c0,0-1.88,10-11,11.61l33.28-.39.2.07.05,5.28a8.29,8.29,0,0,0-.1,1.57c.13,3.92,4.08,6.16,6.86,6.06s4.92-3.35,4.79-7.27S518.93,338.27,516.18,338.27Z" transform="translate(-69.59 -22.02)"/><path class="cls-6" d="M474.81,319.08c-12.74-1.37-16.26-15-16.26-15-3.87-8.18-10.23-4-10.23-4l-2.26,1.65a8.36,8.36,0,0,0-4,.94l-3.53,2.3c9.55-1.75,12,5.79,12,5.79l4.89,7.92-26.67.76-.07-7.26a11.52,11.52,0,0,0,.14-2.19c-.18-5.44-5.67-8.54-9.52-8.41s-6.84,4.66-6.66,10.1,4.49,10.41,8.31,10.42h0l8.06-.14,0-.19Zm-18-9.82,4.27,7.8a20.25,20.25,0,0,1-8.82-10.93,8.46,8.46,0,0,0-3.41-3.67C455.05,303.25,456.81,309.26,456.81,309.26Z" transform="translate(-69.59 -22.02)"/><path class="cls-6" d="M561.35,482.16c-12.74-1.37-16.26-15-16.26-15-3.87-8.18-10.23-4-10.23-4l-2.25,1.66a8.37,8.37,0,0,0-4,.93l-3.53,2.3c9.55-1.75,12,5.79,12,5.79l4.89,7.92-26.67.76-.06-7.26a11.46,11.46,0,0,0,.13-2.19c-.18-5.44-5.67-8.54-9.52-8.4s-6.84,4.65-6.66,10.1,4.49,10.41,8.31,10.41h0l8.06-.14,0-.18Zm-18-9.82,4.27,7.79a20.26,20.26,0,0,1-8.82-10.92,8.54,8.54,0,0,0-3.41-3.68C541.59,466.32,543.35,472.34,543.35,472.34Z" transform="translate(-69.59 -22.02)"/><path class="cls-6" d="M561.35,482.16c-12.74-1.37-16.26-15-16.26-15-3.87-8.18-10.23-4-10.23-4l-2.25,1.66a8.37,8.37,0,0,0-4,.93l-3.53,2.3c9.55-1.75,12,5.79,12,5.79l4.89,7.92-26.67.76-.06-7.26a11.46,11.46,0,0,0,.13-2.19c-.18-5.44-5.67-8.54-9.52-8.4s-6.84,4.65-6.66,10.1,4.49,10.41,8.31,10.41h0l8.06-.14,0-.18Zm-18-9.82,4.27,7.79a20.26,20.26,0,0,1-8.82-10.92,8.54,8.54,0,0,0-3.41-3.68C541.59,466.32,543.35,472.34,543.35,472.34Z" transform="translate(-69.59 -22.02)"/><path class="cls-6" d="M130.83,87.64c-12.22,3.86-20.93-7.22-20.93-7.22-6.84-5.94-11,.43-11,.43l-1.4,2.43a8.22,8.22,0,0,0-3.3,2.47l-2.31,3.52c8-5.44,13.3.48,13.3.48L112.88,95,88.76,106.46l-3-6.63A11.53,11.53,0,0,0,85,97.77c-2.35-4.91-8.62-5.54-12.1-3.86s-4.39,7-2,11.92,8.3,7.73,11.8,6.2h0L90,108.67l-.09-.16ZM110.4,85.88l7,5.42A20.25,20.25,0,0,1,105,84.84a8.5,8.5,0,0,0-4.6-2C106.37,81.08,110.4,85.88,110.4,85.88Z" transform="translate(-69.59 -22.02)"/><path class="cls-6" d="M143.44,300.08c-12.74-1.37-16.26-15-16.26-15-3.88-8.18-10.23-4-10.23-4l-2.26,1.66a8.25,8.25,0,0,0-4,.94l-3.53,2.29c9.55-1.74,12,5.79,12,5.79l4.89,7.92-26.67.76-.07-7.26a11.36,11.36,0,0,0,.14-2.18c-.18-5.45-5.67-8.55-9.53-8.41s-6.83,4.66-6.65,10.1,4.49,10.41,8.31,10.41h0l8.06-.14,0-.18Zm-18-9.82,4.27,7.79a20.21,20.21,0,0,1-8.82-10.92,8.54,8.54,0,0,0-3.41-3.68C123.68,284.24,125.44,290.26,125.44,290.26Z" transform="translate(-69.59 -22.02)"/><path class="cls-6" d="M291.17,213.79c-12.73-1.37-16.26-15-16.26-15-3.87-8.18-10.23-4-10.23-4l-2.25,1.66a8.37,8.37,0,0,0-4,.93l-3.52,2.3c9.54-1.75,12,5.79,12,5.79l4.9,7.92-26.68.76-.06-7.26a12.28,12.28,0,0,0,.14-2.19c-.18-5.44-5.67-8.54-9.53-8.4s-6.84,4.65-6.66,10.1,4.49,10.41,8.31,10.41h0l8.06-.14,0-.18Zm-18-9.82,4.27,7.79a20.21,20.21,0,0,1-8.82-10.92,8.62,8.62,0,0,0-3.42-3.68C271.42,198,273.18,204,273.18,204Z" transform="translate(-69.59 -22.02)"/><path class="cls-6" d="M222.2,209.11c-12.74-1.37-16.26-15-16.26-15-3.88-8.18-10.23-4-10.23-4l-2.26,1.66a8.24,8.24,0,0,0-4,.93l-3.53,2.3c9.55-1.75,12,5.79,12,5.79l4.89,7.92-26.67.76-.07-7.26a11.52,11.52,0,0,0,.14-2.19c-.18-5.44-5.67-8.54-9.53-8.41s-6.83,4.66-6.65,10.11,4.49,10.4,8.31,10.41h0l8.06-.14,0-.19Zm-18-9.83,4.27,7.8a20.21,20.21,0,0,1-8.82-10.93,8.57,8.57,0,0,0-3.41-3.67C202.44,193.27,204.2,199.28,204.2,199.28Z" transform="translate(-69.59 -22.02)"/><path class="cls-6" d="M414.4,272.05c-12.74-1.37-16.26-15-16.26-15-3.87-8.18-10.23-4-10.23-4l-2.25,1.66a8.26,8.26,0,0,0-4,.94l-3.53,2.29c9.55-1.74,12,5.79,12,5.79l4.9,7.92-26.68.77-.06-7.27a12.23,12.23,0,0,0,.14-2.18c-.19-5.45-5.68-8.54-9.53-8.41s-6.84,4.66-6.66,10.1S356.7,275,360.52,275h0l8.06-.14,0-.18Zm-18-9.82,4.27,7.8a20.25,20.25,0,0,1-8.82-10.93,8.54,8.54,0,0,0-3.41-3.68C394.64,256.22,396.4,262.23,396.4,262.23Z" transform="translate(-69.59 -22.02)"/><path class="cls-6" d="M204.64,100.91c-12.74-1.37-16.27-15-16.27-15-3.87-8.18-10.23-4-10.23-4l-2.25,1.66a8.28,8.28,0,0,0-4,.93l-3.52,2.3c9.54-1.75,12,5.79,12,5.79l4.9,7.92-26.67.76L158.49,94a12.4,12.4,0,0,0,.14-2.19c-.18-5.44-5.67-8.54-9.53-8.41s-6.83,4.66-6.65,10.1,4.48,10.41,8.3,10.42h0l8.07-.14,0-.19Zm-18-9.82,4.27,7.8A20.21,20.21,0,0,1,182.09,88a8.63,8.63,0,0,0-3.41-3.67C184.88,85.08,186.64,91.09,186.64,91.09Z" transform="translate(-69.59 -22.02)"/><path class="cls-6" d="M268.69,360c-12.74-1.37-16.26-15-16.26-15-3.87-8.18-10.23-4-10.23-4L240,342.65a8.26,8.26,0,0,0-4,.94l-3.53,2.3c9.55-1.75,12,5.78,12,5.78l4.89,7.92-26.67.77-.06-7.27a11.35,11.35,0,0,0,.13-2.18c-.18-5.44-5.67-8.54-9.52-8.41s-6.84,4.66-6.66,10.1S211,363,214.81,363h0l8.06-.15,0-.18Zm-18-9.82L255,358a20.25,20.25,0,0,1-8.82-10.93,8.46,8.46,0,0,0-3.41-3.67C248.93,344.2,250.69,350.21,250.69,350.21Z" transform="translate(-69.59 -22.02)"/><path class="cls-6" d="M510.67,380.68c-12.73-1.37-16.26-15-16.26-15-3.87-8.18-10.23-4-10.23-4l-2.25,1.66a8.26,8.26,0,0,0-4,.94l-3.52,2.29c9.54-1.74,12,5.79,12,5.79l4.9,7.92-26.68.76-.06-7.26a12.23,12.23,0,0,0,.14-2.18c-.18-5.45-5.67-8.55-9.53-8.41s-6.84,4.66-6.66,10.1,4.49,10.41,8.31,10.42h0l8.06-.14,0-.18Zm-18-9.82,4.27,7.8a20.29,20.29,0,0,1-8.83-10.93,8.54,8.54,0,0,0-3.41-3.68C490.92,364.84,492.68,370.86,492.68,370.86Z" transform="translate(-69.59 -22.02)"/><path class="cls-6" d="M355,416.36c-12.74-1.37-16.26-15-16.26-15-3.87-8.18-10.23-4-10.23-4L326.29,399a8.37,8.37,0,0,0-4,.93l-3.53,2.3c9.55-1.75,12,5.79,12,5.79l4.9,7.92-26.68.76-.06-7.26a12.4,12.4,0,0,0,.14-2.19c-.18-5.44-5.68-8.54-9.53-8.4s-6.84,4.65-6.66,10.1,4.49,10.4,8.31,10.41h0l8.06-.14,0-.18Zm-18-9.83,4.27,7.8a20.26,20.26,0,0,1-8.82-10.92,8.54,8.54,0,0,0-3.41-3.68C335.27,400.52,337,406.53,337,406.53Z" transform="translate(-69.59 -22.02)"/><path class="cls-6" d="M146.35,244.75c-12.74-1.37-16.26-15-16.26-15-3.88-8.18-10.24-4-10.24-4l-2.25,1.66a8.36,8.36,0,0,0-4,.93l-3.53,2.3c9.55-1.75,12,5.79,12,5.79l4.9,7.92-26.67.76-.07-7.26a11.41,11.41,0,0,0,.14-2.19c-.18-5.44-5.67-8.54-9.53-8.4s-6.83,4.65-6.65,10.1,4.49,10.41,8.3,10.41h0l8.07-.14,0-.18Zm-18-9.82,4.27,7.79a20.21,20.21,0,0,1-8.82-10.92,8.54,8.54,0,0,0-3.41-3.68C126.59,228.91,128.35,234.93,128.35,234.93Z" transform="translate(-69.59 -22.02)"/><path class="cls-6" d="M287.41,305.53c-12.74-1.37-16.26-15-16.26-15-3.88-8.18-10.23-4-10.23-4l-2.26,1.65a8.25,8.25,0,0,0-4,.94l-3.53,2.3c9.55-1.75,12,5.79,12,5.79L268,305.1l-26.67.76-.07-7.26a11.52,11.52,0,0,0,.14-2.19c-.18-5.44-5.67-8.54-9.53-8.41s-6.83,4.66-6.65,10.1,4.49,10.41,8.3,10.42h0l8.07-.15,0-.18Zm-18-9.82,4.27,7.8a20.25,20.25,0,0,1-8.82-10.93,8.46,8.46,0,0,0-3.41-3.67C267.65,289.7,269.41,295.71,269.41,295.71Z" transform="translate(-69.59 -22.02)"/><path class="cls-6" d="M339.26,173.51c-12.73-1.37-16.26-15-16.26-15-3.87-8.18-10.23-4-10.23-4l-2.25,1.66a8.25,8.25,0,0,0-4,.93l-3.52,2.3c9.54-1.75,12,5.79,12,5.79l4.9,7.92-26.68.76-.06-7.26a12.4,12.4,0,0,0,.14-2.19c-.18-5.44-5.68-8.54-9.53-8.41s-6.84,4.66-6.66,10.1,4.49,10.41,8.31,10.42h0l8.06-.14,0-.19Zm-18-9.82,4.27,7.8a20.26,20.26,0,0,1-8.83-10.93,8.57,8.57,0,0,0-3.41-3.67C319.51,157.68,321.27,163.69,321.27,163.69Z" transform="translate(-69.59 -22.02)"/><path class="cls-6" d="M372,384.49c-12.74-1.37-16.26-15-16.26-15-3.87-8.18-10.23-4-10.23-4l-2.25,1.66a8.37,8.37,0,0,0-4,.93l-3.53,2.3c9.55-1.75,12,5.79,12,5.79l4.89,7.92-26.67.76-.07-7.26a10.71,10.71,0,0,0,.14-2.19c-.18-5.44-5.67-8.54-9.52-8.4s-6.84,4.65-6.66,10.1,4.49,10.41,8.31,10.41h0l8.06-.14,0-.18Zm-18-9.82,4.27,7.79a20.21,20.21,0,0,1-8.82-10.92,8.54,8.54,0,0,0-3.41-3.68C352.27,368.65,354,374.67,354,374.67Z" transform="translate(-69.59 -22.02)"/><path class="cls-6" d="M242.07,42.12c-12.73-1.37-16.26-15-16.26-15-3.87-8.18-10.23-4-10.23-4l-2.25,1.66a8.37,8.37,0,0,0-4,.93L205.79,28c9.54-1.75,12,5.79,12,5.79l4.9,7.92L196,42.44l-.06-7.26a12.34,12.34,0,0,0,.14-2.19c-.18-5.44-5.67-8.54-9.53-8.4s-6.84,4.65-6.66,10.1,4.49,10.41,8.31,10.41h0l8.06-.14,0-.18Zm-18-9.83,4.27,7.8a20.25,20.25,0,0,1-8.83-10.92,8.54,8.54,0,0,0-3.41-3.68C222.32,26.28,224.08,32.29,224.08,32.29Z" transform="translate(-69.59 -22.02)"/><path class="cls-6" d="M497.34,453.43c-12.74-1.37-16.26-15-16.26-15-3.88-8.18-10.23-4-10.23-4l-2.26,1.66a8.36,8.36,0,0,0-4,.93l-3.53,2.3c9.55-1.75,12,5.79,12,5.79l4.89,7.92-26.67.76-.07-7.26a11.46,11.46,0,0,0,.14-2.19c-.18-5.44-5.67-8.54-9.53-8.4s-6.83,4.65-6.65,10.1,4.49,10.41,8.31,10.41h0l8.07-.14,0-.18Zm-18-9.82,4.27,7.79a20.21,20.21,0,0,1-8.82-10.92,8.54,8.54,0,0,0-3.41-3.68C477.58,437.59,479.34,443.61,479.34,443.61Z" transform="translate(-69.59 -22.02)"/><path class="cls-6" d="M554.39,437.55l0,3.07a4.64,4.64,0,0,0-.06.91,3.91,3.91,0,0,0,4,3.52c1.61-.06,2.85-1.95,2.78-4.22s-1.88-4.36-3.47-4.36h0l-3.37,0-11.42.48-.54-16.49-1,0,.54,16.5-1.41,0-.55-16.55h.18l13.59-.15.12,0,0,3.06a4.69,4.69,0,0,0-.06.92,3.92,3.92,0,0,0,4,3.51c1.61-.05,2.86-2,2.78-4.22s-1.88-4.36-3.47-4.36h0l-3.37.06-13.82.16h-.45l-5.11.06.6,18.12,19.33-.23Z" transform="translate(-69.59 -22.02)"/><path class="cls-6" d="M380.41,339.63l0,3.07a4.64,4.64,0,0,0-.06.91,3.91,3.91,0,0,0,4,3.52c1.61-.06,2.86-1.95,2.79-4.22s-1.88-4.36-3.48-4.36h0l-3.37.06-11.42.47-.55-16.49-1,0,.54,16.5-1.41.06L366,322.62h.18l13.59-.16.12,0,0,3.06a4.74,4.74,0,0,0-.06.92,3.9,3.9,0,0,0,4,3.51c1.62-.05,2.86-1.94,2.79-4.22s-1.88-4.35-3.48-4.36h0l-3.37.06-13.81.17h-.45l-5.11.06.6,18.12,19.33-.23Z" transform="translate(-69.59 -22.02)"/><path class="cls-6" d="M380.41,339.63l0,3.07a4.64,4.64,0,0,0-.06.91,3.91,3.91,0,0,0,4,3.52c1.61-.06,2.86-1.95,2.79-4.22s-1.88-4.36-3.48-4.36h0l-3.37.06-11.42.47-.55-16.49-1,0,.54,16.5-1.41.06L366,322.62h.18l13.59-.16.12,0,0,3.06a4.74,4.74,0,0,0-.06.92,3.9,3.9,0,0,0,4,3.51c1.62-.05,2.86-1.94,2.79-4.22s-1.88-4.35-3.48-4.36h0l-3.37.06-13.81.17h-.45l-5.11.06.6,18.12,19.33-.23Z" transform="translate(-69.59 -22.02)"/><path class="cls-6" d="M158.05,349.18l0,3.07a5.49,5.49,0,0,0,0,.91,3.91,3.91,0,0,0,4,3.52c1.61-.06,2.86-1.95,2.79-4.23s-1.88-4.35-3.48-4.36h0l-3.37.06-11.42.47L146,332.14l-1,0,.55,16.49-1.41.06-.55-16.56h.18l13.59-.16.12,0,0,3.07a4.64,4.64,0,0,0-.06.91,3.91,3.91,0,0,0,4,3.52c1.62-.06,2.86-2,2.79-4.23s-1.88-4.35-3.48-4.35h0l-3.37.05-13.81.17h-.45l-5.11.06.6,18.12,19.33-.23Z" transform="translate(-69.59 -22.02)"/><path class="cls-6" d="M556,376.34l0,3.07a4.64,4.64,0,0,0-.06.91,3.91,3.91,0,0,0,4,3.52c1.61-.06,2.86-1.95,2.78-4.22s-1.88-4.36-3.47-4.36h0l-3.37.06-11.42.47L544,359.3l-1,0,.55,16.5-1.41.05-.55-16.55h.17l13.6-.15.12,0,0,3.06a7,7,0,0,0-.06.92,3.92,3.92,0,0,0,4,3.51c1.61-.05,2.86-1.94,2.78-4.22s-1.87-4.36-3.47-4.36h0l-3.37.06-13.82.17h-.44l-5.12.06.6,18.12,19.33-.23Z" transform="translate(-69.59 -22.02)"/><path class="cls-6" d="M428.2,375.44l0,3.06a5.62,5.62,0,0,0-.05.92,3.9,3.9,0,0,0,4,3.51c1.61-.05,2.86-1.95,2.78-4.22s-1.87-4.35-3.47-4.36h0l-3.37.06-11.42.47-.55-16.49-1,0,.55,16.49-1.41.06-.55-16.56h.17l13.6-.16.12,0,0,3.07a4.59,4.59,0,0,0-.06.91,3.91,3.91,0,0,0,4,3.52c1.62-.06,2.86-1.95,2.79-4.23s-1.88-4.35-3.48-4.36h0l-3.37.06-13.81.17h-.45l-5.11.07.6,18.11,19.33-.22Z" transform="translate(-69.59 -22.02)"/><path class="cls-6" d="M255.32,256.44l0,3.07a4.59,4.59,0,0,0-.06.91,3.92,3.92,0,0,0,4,3.52c1.61-.06,2.85-1.95,2.78-4.23s-1.88-4.35-3.47-4.36h0l-3.38.06-11.42.47-.54-16.49-1,0,.55,16.49-1.42.06-.55-16.56H241l13.59-.16.12,0,0,3.07a4.64,4.64,0,0,0-.06.91,3.92,3.92,0,0,0,4,3.52c1.61-.06,2.86-2,2.78-4.23s-1.88-4.35-3.47-4.35h0l-3.38.06-13.81.17h-.45l-5.11.06.6,18.11,19.33-.22Z" transform="translate(-69.59 -22.02)"/><path class="cls-6" d="M293.25,127.92l0,3.06a4.69,4.69,0,0,0-.06.92,3.92,3.92,0,0,0,4,3.51c1.61,0,2.86-1.95,2.78-4.22s-1.88-4.36-3.47-4.36h0l-3.38.06-11.41.47-.55-16.49-1,0,.55,16.49-1.41.06-.55-16.56H279l13.6-.16.11,0,0,3.07a6.84,6.84,0,0,0-.06.91,3.93,3.93,0,0,0,4,3.52c1.61-.06,2.86-2,2.78-4.23s-1.87-4.35-3.47-4.36h0l-3.37.06-13.82.17h-.44l-5.12.07.6,18.11,19.33-.23Z" transform="translate(-69.59 -22.02)"/><path class="cls-6" d="M338.42,314.18l0,3.06a5.62,5.62,0,0,0-.05.92,3.9,3.9,0,0,0,4,3.51c1.61-.05,2.86-1.94,2.78-4.22s-1.87-4.35-3.47-4.36h0l-3.37.06-11.42.47-.55-16.49-1,0,.55,16.49-1.41.06L324,297.16h.17l13.6-.16.12,0,0,3.07a4.59,4.59,0,0,0-.06.91,3.91,3.91,0,0,0,4,3.52c1.62-.06,2.86-2,2.79-4.23s-1.88-4.35-3.48-4.35h0l-3.37.06-13.81.17h-.45l-5.11.07.6,18.11,19.33-.22Z" transform="translate(-69.59 -22.02)"/><path class="cls-6" d="M233.51,138.51l0,3.07a4.64,4.64,0,0,0-.06.91,3.92,3.92,0,0,0,4,3.52c1.61-.06,2.86-1.95,2.78-4.22s-1.87-4.36-3.47-4.36h0l-3.37.06L222,138l-.55-16.49-1,0L221,138l-1.41.05-.55-16.55h.17l13.6-.16.12,0,0,3.06a5.68,5.68,0,0,0-.05.92,3.9,3.9,0,0,0,4,3.51c1.61-.05,2.86-1.94,2.79-4.22s-1.88-4.35-3.48-4.36h0l-3.37.06-13.81.17h-.45l-5.12.06.61,18.12,19.32-.23Z" transform="translate(-69.59 -22.02)"/><path class="cls-6" d="M314.48,277l0,3.06a4.69,4.69,0,0,0-.06.92,3.9,3.9,0,0,0,4,3.51c1.62-.05,2.86-2,2.79-4.22s-1.88-4.35-3.48-4.36h0l-3.37.06-11.42.47-.54-16.49-1,0,.54,16.49-1.41.06L300,260h.18l13.59-.16.12,0,0,3.07a4.59,4.59,0,0,0-.06.91,3.92,3.92,0,0,0,4,3.52c1.61-.06,2.86-2,2.78-4.23s-1.88-4.35-3.47-4.35h0l-3.38.06L300,259h-.45l-5.11.07.6,18.11,19.33-.22Z" transform="translate(-69.59 -22.02)"/><path class="cls-6" d="M230.88,88.18l0,3.06a5.62,5.62,0,0,0-.05.92,3.9,3.9,0,0,0,4,3.51c1.61,0,2.86-2,2.78-4.22s-1.87-4.36-3.47-4.36h0l-3.37.06-11.42.47-.55-16.49-1,0,.55,16.49-1.41.06-.55-16.56h.18L230.19,71l.12,0,0,3.07a4.59,4.59,0,0,0-.06.91,3.91,3.91,0,0,0,4,3.52c1.62-.06,2.86-2,2.79-4.23S235.17,70,233.57,70h0L230.2,70l-13.81.17h-.45l-5.11.07.6,18.11,19.33-.22Z" transform="translate(-69.59 -22.02)"/><path class="cls-6" d="M180.16,278.91l0,3.06a4.74,4.74,0,0,0-.06.92,3.91,3.91,0,0,0,4,3.51c1.61,0,2.86-1.94,2.78-4.22s-1.88-4.35-3.47-4.36h0l-3.38.06-11.41.47-.55-16.49-1,0,.55,16.49-1.42.06-.54-16.56h.17l13.59-.16.12,0,0,3.07a5.57,5.57,0,0,0-.06.91,3.93,3.93,0,0,0,4,3.52c1.61-.06,2.86-1.95,2.78-4.23s-1.87-4.35-3.47-4.35h0l-3.37.06-13.82.17h-.45l-5.11.06.6,18.11,19.33-.22Z" transform="translate(-69.59 -22.02)"/><path class="cls-6" d="M299.17,357l0,3.06a5.69,5.69,0,0,0-.06.92,3.91,3.91,0,0,0,4,3.51c1.61,0,2.86-1.94,2.78-4.22s-1.87-4.35-3.47-4.36h0l-3.37.06-11.42.47L287.1,340l-1,0,.55,16.49-1.41.06L284.72,340h.17l13.6-.16.12,0,0,3.07a5.56,5.56,0,0,0-.05.91,3.91,3.91,0,0,0,4,3.52c1.61-.06,2.86-1.95,2.79-4.23s-1.88-4.35-3.48-4.35h0l-3.37.06-13.81.17h-.45l-5.11.06.6,18.11,19.33-.22Z" transform="translate(-69.59 -22.02)"/><path class="cls-6" d="M351,225l0,3.07a4.59,4.59,0,0,0-.06.91,3.91,3.91,0,0,0,4,3.52c1.62-.06,2.86-1.95,2.79-4.23s-1.88-4.35-3.48-4.35h0l-3.37.06-11.42.47L339,208l-1,0,.54,16.49-1.41.06L336.57,208h.18l13.59-.16.12,0,0,3.07a4.64,4.64,0,0,0-.06.91,3.91,3.91,0,0,0,4,3.52c1.61-.06,2.86-2,2.78-4.22s-1.88-4.36-3.47-4.36h0l-3.38.05-13.81.17h-.45l-5.11.06.6,18.12,19.33-.23Z" transform="translate(-69.59 -22.02)"/><path class="cls-6" d="M393.81,426.47l0,3.07a4.59,4.59,0,0,0-.06.91,3.91,3.91,0,0,0,4,3.52c1.62-.06,2.86-2,2.79-4.23s-1.88-4.35-3.48-4.36h0l-3.37.06-11.42.47-.54-16.48-1,0,.54,16.49-1.41.06-.55-16.56h.18l13.59-.16.12,0,0,3.07a4.64,4.64,0,0,0-.06.91,3.91,3.91,0,0,0,4,3.52c1.61-.06,2.85-1.95,2.78-4.23s-1.88-4.35-3.48-4.35h0l-3.37.05-13.81.17h-.45l-5.11.06.6,18.11,19.33-.22Z" transform="translate(-69.59 -22.02)"/><path class="cls-6" d="M509.68,423.58l0,3.06a4.74,4.74,0,0,0-.06.92,3.91,3.91,0,0,0,4,3.51c1.61-.05,2.86-1.94,2.78-4.22s-1.88-4.35-3.47-4.36h0l-3.38.06-11.41.47-.55-16.49-1,0,.55,16.49-1.42.06-.54-16.56h.17L509,406.4l.12,0,0,3.07a4.64,4.64,0,0,0-.06.91,3.93,3.93,0,0,0,4,3.52c1.61-.06,2.86-1.95,2.78-4.23s-1.87-4.35-3.47-4.35h0l-3.37.06-13.82.17h-.45l-5.11.06.6,18.11,19.33-.22Z" transform="translate(-69.59 -22.02)"/><path class="cls-6" d="M509.68,423.58l0,3.06a4.74,4.74,0,0,0-.06.92,3.91,3.91,0,0,0,4,3.51c1.61-.05,2.86-1.94,2.78-4.22s-1.88-4.35-3.47-4.36h0l-3.38.06-11.41.47-.55-16.49-1,0,.55,16.49-1.42.06-.54-16.56h.17L509,406.4l.12,0,0,3.07a4.64,4.64,0,0,0-.06.91,3.93,3.93,0,0,0,4,3.52c1.61-.06,2.86-1.95,2.78-4.23s-1.87-4.35-3.47-4.35h0l-3.37.06-13.82.17h-.45l-5.11.06.6,18.11,19.33-.22Z" transform="translate(-69.59 -22.02)"/><path class="cls-6" d="M138.11,144.07l0,3.06a4.74,4.74,0,0,0-.06.92,3.9,3.9,0,0,0,4,3.51c1.62-.05,2.86-1.94,2.79-4.22S143,143,141.37,143h0L138,143l-11.42.47L126,127l-1,0,.54,16.49-1.41.06-.55-16.56h.18l13.59-.16.12,0,0,3.07a4.59,4.59,0,0,0-.06.91,3.92,3.92,0,0,0,4,3.52c1.61-.06,2.85-2,2.78-4.23s-1.88-4.35-3.48-4.35h0l-3.38.06-13.81.17h-.45l-5.11.07.6,18.11L138,144Z" transform="translate(-69.59 -22.02)"/></svg>